<?xml version="1.0" encoding="UTF-8" standalone="yes"?>
<!-- Created with sK1/UniConvertor (http://sk1project.org/) -->
<svg xmlns="http://www.w3.org/2000/svg" xmlns:xlink="http://www.w3.org/1999/xlink"
  width="595.276pt" height="841.89pt" viewBox="0 0 595.276 841.89"
  fill-rule="evenodd">
<g>
<path style="stroke:#000000; stroke-width:0.850394; stroke-linejoin:round; stroke-linecap:round; fill:none" d="M -140 984.64L -150 974.64L -150 957.14L -140 947.14L 140 947.14L 150 957.14L 150 974.64L 140 984.64L -140 984.64z"/>
<path style="stroke:#000000; stroke-width:0.850394; stroke-linejoin:round; stroke-linecap:round; fill:none" d="M -32.5 965.89C -32.5 963.13 -34.7402 960.89 -37.5 960.89C -40.2598 960.89 -42.5 963.13 -42.5 965.89C -42.5 968.65 -40.2598 970.89 -37.5 970.89C -34.7402 970.89 -32.5 968.65 -32.5 965.89z"/>
<path style="stroke:#000000; stroke-width:0.850394; stroke-linejoin:round; stroke-linecap:round; fill:none" d="M 80 965.89C 80 963.13 77.7598 960.89 75 960.89C 72.2402 960.89 70 963.13 70 965.89C 70 968.65 72.2402 970.89 75 970.89C 77.7598 970.89 80 968.65 80 965.89z"/>
<path style="stroke:#000000; stroke-width:0.850394; stroke-linejoin:round; stroke-linecap:round; fill:none" d="M 5 965.89C 5 963.13 2.75985 960.89 0 960.89C -2.75985 960.89 -5 963.13 -5 965.89C -5 968.65 -2.75985 970.89 0 970.89C 2.75985 970.89 5 968.65 5 965.89z"/>
<path style="stroke:#000000; stroke-width:0.850394; stroke-linejoin:round; stroke-linecap:round; fill:none" d="M -70 965.89C -70 963.13 -72.2402 960.89 -75 960.89C -77.7598 960.89 -80 963.13 -80 965.89C -80 968.65 -77.7598 970.89 -75 970.89C -72.2402 970.89 -70 968.65 -70 965.89z"/>
<path style="stroke:#000000; stroke-width:0.850394; stroke-linejoin:round; stroke-linecap:round; fill:none" d="M 117.5 965.89C 117.5 963.13 115.26 960.89 112.5 960.89C 109.74 960.89 107.5 963.13 107.5 965.89C 107.5 968.65 109.74 970.89 112.5 970.89C 115.26 970.89 117.5 968.65 117.5 965.89z"/>
<path style="stroke:#000000; stroke-width:0.850394; stroke-linejoin:round; stroke-linecap:round; fill:none" d="M 42.5 965.89C 42.5 963.13 40.2598 960.89 37.5 960.89C 34.7402 960.89 32.5 963.13 32.5 965.89C 32.5 968.65 34.7402 970.89 37.5 970.89C 40.2598 970.89 42.5 968.65 42.5 965.89z"/>
<path style="stroke:#000000; stroke-width:0.850394; stroke-linejoin:round; stroke-linecap:round; fill:none" d="M -107.5 965.89C -107.5 963.13 -109.74 960.89 -112.5 960.89C -115.26 960.89 -117.5 963.13 -117.5 965.89C -117.5 968.65 -115.26 970.89 -112.5 970.89C -109.74 970.89 -107.5 968.65 -107.5 965.89z"/>
<path style="stroke:#000000; stroke-width:0.850394; stroke-linejoin:round; stroke-linecap:round; fill:none" d="M 28.5605 974.89C 28.5605 974.062 27.8885 973.39 27.0605 973.39C 26.2325 973.39 25.5605 974.062 25.5605 974.89C 25.5605 975.718 26.2325 976.39 27.0605 976.39C 27.8885 976.39 28.5605 975.718 28.5605 974.89z"/>
<path style="stroke:#000000; stroke-width:0.850394; stroke-linejoin:round; stroke-linecap:round; fill:none" d="M -25.5605 956.89C -25.5605 956.062 -26.2325 955.39 -27.0605 955.39C -27.8885 955.39 -28.5605 956.062 -28.5605 956.89C -28.5605 957.718 -27.8885 958.39 -27.0605 958.39C -26.2325 958.39 -25.5605 957.718 -25.5605 956.89z"/>
<path style="stroke:#000000; stroke-width:0.850394; stroke-linejoin:round; stroke-linecap:round; fill:none" d="M 28.5605 956.89C 28.5605 956.062 27.8885 955.39 27.0605 955.39C 26.2325 955.39 25.5605 956.062 25.5605 956.89C 25.5605 957.718 26.2325 958.39 27.0605 958.39C 27.8885 958.39 28.5605 957.718 28.5605 956.89z"/>
<path style="stroke:#000000; stroke-width:0.850394; stroke-linejoin:round; stroke-linecap:round; fill:none" d="M -25.5605 974.89C -25.5605 974.062 -26.2325 973.39 -27.0605 973.39C -27.8885 973.39 -28.5605 974.062 -28.5605 974.89C -28.5605 975.718 -27.8885 976.39 -27.0605 976.39C -26.2325 976.39 -25.5605 975.718 -25.5605 974.89z"/>
</g>
</svg>