<?xml version="1.0" encoding="utf-8"?>
<!-- Generator: Adobe Illustrator 17.0.0, SVG Export Plug-In . SVG Version: 6.00 Build 0)  -->
<!DOCTYPE svg PUBLIC "-//W3C//DTD SVG 1.1//EN" "http://www.w3.org/Graphics/SVG/1.1/DTD/svg11.dtd">
<svg version="1.1" id="Livello_1" xmlns="http://www.w3.org/2000/svg" xmlns:xlink="http://www.w3.org/1999/xlink" x="0px" y="0px"
	 width="2236.535px" height="977.953px" viewBox="0 0 2236.535 977.953" enable-background="new 0 0 2236.535 977.953"
	 xml:space="preserve">
<g>
	<path fill="none" stroke="#000000" stroke-width="0.01" stroke-linecap="round" stroke-linejoin="round" d="M1060.368,81.437
		h106.299V64.429H175.958v212.598h17.008v425.197h-17.008v212.598h990.709v-17.008h-106.299V81.437z"/>
	<path fill="none" stroke="#000000" stroke-width="0.01" stroke-linecap="round" stroke-linejoin="round" d="M1355.613,11.28
		v956.693H20.223V11.28H1355.613z"/>
	<path fill="none" stroke="#000000" stroke-width="0.01" stroke-linecap="round" stroke-linejoin="round" d="M1149.659,702.225
		h17.008V277.028h-17.008V702.225z"/>
</g>
<g>
	<path fill="none" stroke="#000000" stroke-width="0.01" stroke-linecap="round" stroke-linejoin="round" d="M223.162,186.565
		l-28.346-28.346v-49.606l28.346-28.346h793.701l28.346,28.346v49.606l-28.346,28.346H223.162z"/>
	<path fill="none" stroke="#000000" stroke-width="0.01" stroke-linecap="round" stroke-linejoin="round" d="M527.887,133.415
		c0-7.824-6.35-14.173-14.173-14.173s-14.173,6.35-14.173,14.173c0,7.824,6.35,14.173,14.173,14.173
		S527.887,141.239,527.887,133.415z"/>
	<path fill="none" stroke="#000000" stroke-width="0.01" stroke-linecap="round" stroke-linejoin="round" d="M846.784,133.415
		c0-7.824-6.35-14.173-14.173-14.173s-14.173,6.35-14.173,14.173c0,7.824,6.35,14.173,14.173,14.173
		S846.784,141.239,846.784,133.415z"/>
	<path fill="none" stroke="#000000" stroke-width="0.01" stroke-linecap="round" stroke-linejoin="round" d="M634.186,133.415
		c0-7.824-6.35-14.173-14.173-14.173s-14.173,6.35-14.173,14.173c0,7.824,6.35,14.173,14.173,14.173
		S634.186,141.239,634.186,133.415z"/>
	<path fill="none" stroke="#000000" stroke-width="0.01" stroke-linecap="round" stroke-linejoin="round" d="M421.588,133.415
		c0-7.824-6.35-14.173-14.173-14.173s-14.173,6.35-14.173,14.173c0,7.824,6.35,14.173,14.173,14.173
		S421.588,141.239,421.588,133.415z"/>
	<path fill="none" stroke="#000000" stroke-width="0.01" stroke-linecap="round" stroke-linejoin="round" d="M953.084,133.415
		c0-7.824-6.35-14.173-14.173-14.173s-14.173,6.35-14.173,14.173c0,7.824,6.35,14.173,14.173,14.173
		S953.084,141.239,953.084,133.415z"/>
	<path fill="none" stroke="#000000" stroke-width="0.01" stroke-linecap="round" stroke-linejoin="round" d="M740.485,133.415
		c0-7.824-6.35-14.173-14.173-14.173s-14.173,6.35-14.173,14.173c0,7.824,6.35,14.173,14.173,14.173
		S740.485,141.239,740.485,133.415z"/>
	<path fill="none" stroke="#000000" stroke-width="0.01" stroke-linecap="round" stroke-linejoin="round" d="M315.288,133.415
		c0-7.824-6.35-14.173-14.173-14.173c-7.824,0-14.173,6.35-14.173,14.173c0,7.824,6.35,14.173,14.173,14.173
		C308.939,147.588,315.288,141.239,315.288,133.415z"/>
	<path fill="none" stroke="#000000" stroke-width="0.01" stroke-linecap="round" stroke-linejoin="round" d="M700.972,158.927
		c0-2.347-1.905-4.252-4.252-4.252c-2.347,0-4.252,1.905-4.252,4.252c0,2.347,1.905,4.252,4.252,4.252
		C699.067,163.179,700.972,161.274,700.972,158.927z"/>
	<path fill="none" stroke="#000000" stroke-width="0.01" stroke-linecap="round" stroke-linejoin="round" d="M547.558,107.903
		c0-2.347-1.905-4.252-4.252-4.252c-2.347,0-4.252,1.905-4.252,4.252s1.905,4.252,4.252,4.252
		C545.653,112.155,547.558,110.25,547.558,107.903z"/>
	<path fill="none" stroke="#000000" stroke-width="0.01" stroke-linecap="round" stroke-linejoin="round" d="M700.972,107.903
		c0-2.347-1.905-4.252-4.252-4.252c-2.347,0-4.252,1.905-4.252,4.252s1.905,4.252,4.252,4.252
		C699.067,112.155,700.972,110.25,700.972,107.903z"/>
	<path fill="none" stroke="#000000" stroke-width="0.01" stroke-linecap="round" stroke-linejoin="round" d="M547.558,158.927
		c0-2.347-1.905-4.252-4.252-4.252c-2.347,0-4.252,1.905-4.252,4.252c0,2.347,1.905,4.252,4.252,4.252
		C545.653,163.179,547.558,161.274,547.558,158.927z"/>
</g>
<g>
	<g>
		<path fill="none" stroke="#000000" stroke-width="0.01" stroke-linecap="round" stroke-linejoin="round" d="M248.005,303.348
			c-10.913,0-26.156-6.314-33.873-14.031l-0.285-0.285c-7.717-7.717-14.031-22.96-14.031-33.873v-9.921
			c0-10.913,6.314-26.156,14.031-33.873l0.285-0.285c7.717-7.717,22.96-14.031,33.873-14.031h754.016
			c10.913,0,26.156,6.314,33.873,14.031l0.285,0.285c7.717,7.717,14.031,22.96,14.031,33.873v9.921
			c0,10.913-6.314,26.156-14.031,33.873l-0.285,0.285c-7.717,7.717-22.96,14.031-33.873,14.031H248.005z"/>
	</g>
	<path fill="none" stroke="#000000" stroke-width="0.01" stroke-linecap="round" stroke-linejoin="round" d="M532.887,250.198
		c0-7.824-6.35-14.173-14.173-14.173s-14.173,6.35-14.173,14.173c0,7.824,6.35,14.173,14.173,14.173
		S532.887,258.022,532.887,250.198z"/>
	<path fill="none" stroke="#000000" stroke-width="0.01" stroke-linecap="round" stroke-linejoin="round" d="M851.784,250.198
		c0-7.824-6.35-14.173-14.173-14.173s-14.173,6.35-14.173,14.173c0,7.824,6.35,14.173,14.173,14.173
		S851.784,258.022,851.784,250.198z"/>
	<path fill="none" stroke="#000000" stroke-width="0.01" stroke-linecap="round" stroke-linejoin="round" d="M639.186,250.198
		c0-7.824-6.35-14.173-14.173-14.173s-14.173,6.35-14.173,14.173c0,7.824,6.35,14.173,14.173,14.173
		S639.186,258.022,639.186,250.198z"/>
	<path fill="none" stroke="#000000" stroke-width="0.01" stroke-linecap="round" stroke-linejoin="round" d="M426.588,250.198
		c0-7.824-6.35-14.173-14.173-14.173s-14.173,6.35-14.173,14.173c0,7.824,6.35,14.173,14.173,14.173
		S426.588,258.022,426.588,250.198z"/>
	<path fill="none" stroke="#000000" stroke-width="0.01" stroke-linecap="round" stroke-linejoin="round" d="M958.084,250.198
		c0-7.824-6.35-14.173-14.173-14.173s-14.173,6.35-14.173,14.173c0,7.824,6.35,14.173,14.173,14.173
		S958.084,258.022,958.084,250.198z"/>
	<path fill="none" stroke="#000000" stroke-width="0.01" stroke-linecap="round" stroke-linejoin="round" d="M745.485,250.198
		c0-7.824-6.35-14.173-14.173-14.173s-14.173,6.35-14.173,14.173c0,7.824,6.35,14.173,14.173,14.173
		S745.485,258.022,745.485,250.198z"/>
	<path fill="none" stroke="#000000" stroke-width="0.01" stroke-linecap="round" stroke-linejoin="round" d="M320.288,250.198
		c0-7.824-6.35-14.173-14.173-14.173c-7.824,0-14.173,6.35-14.173,14.173c0,7.824,6.35,14.173,14.173,14.173
		C313.939,264.371,320.288,258.022,320.288,250.198z"/>
	<path fill="none" stroke="#000000" stroke-width="0.01" stroke-linecap="round" stroke-linejoin="round" d="M705.972,275.71
		c0-2.347-1.905-4.252-4.252-4.252c-2.347,0-4.252,1.905-4.252,4.252s1.905,4.252,4.252,4.252
		C704.067,279.962,705.972,278.057,705.972,275.71z"/>
	<path fill="none" stroke="#000000" stroke-width="0.01" stroke-linecap="round" stroke-linejoin="round" d="M552.558,224.686
		c0-2.347-1.905-4.252-4.252-4.252c-2.347,0-4.252,1.905-4.252,4.252s1.905,4.252,4.252,4.252
		C550.653,228.938,552.558,227.033,552.558,224.686z"/>
	<path fill="none" stroke="#000000" stroke-width="0.01" stroke-linecap="round" stroke-linejoin="round" d="M705.972,224.686
		c0-2.347-1.905-4.252-4.252-4.252c-2.347,0-4.252,1.905-4.252,4.252s1.905,4.252,4.252,4.252
		C704.067,228.938,705.972,227.033,705.972,224.686z"/>
	<path fill="none" stroke="#000000" stroke-width="0.01" stroke-linecap="round" stroke-linejoin="round" d="M552.558,275.71
		c0-2.347-1.905-4.252-4.252-4.252c-2.347,0-4.252,1.905-4.252,4.252s1.905,4.252,4.252,4.252
		C550.653,279.962,552.558,278.057,552.558,275.71z"/>
</g>
<g>
	<g id="CIRCLE">
		
			<path fill="none" stroke="#000000" stroke-width="0.01" stroke-linecap="round" stroke-linejoin="round" stroke-miterlimit="10" d="
			M592.904,431.653c0-2.348,1.904-4.252,4.252-4.252c2.348,0,4.252,1.904,4.252,4.252s-1.904,4.252-4.252,4.252
			C594.807,435.905,592.904,434.001,592.904,431.653L592.904,431.653z"/>
	</g>
	<g id="CIRCLE_1_">
		
			<path fill="none" stroke="#000000" stroke-width="0.01" stroke-linecap="round" stroke-linejoin="round" stroke-miterlimit="10" d="
			M592.904,475.263c0-2.348,1.904-4.252,4.252-4.252c2.348,0,4.252,1.904,4.252,4.252s-1.904,4.252-4.252,4.252
			C594.807,479.515,592.904,477.611,592.904,475.263L592.904,475.263z"/>
	</g>
	<g id="CIRCLE_2_">
		
			<path fill="none" stroke="#000000" stroke-width="0.01" stroke-linecap="round" stroke-linejoin="round" stroke-miterlimit="10" d="
			M486.605,474.273c0-2.348,1.904-4.252,4.252-4.252s4.252,1.904,4.252,4.252s-1.904,4.252-4.252,4.252
			S486.605,476.621,486.605,474.273L486.605,474.273z"/>
	</g>
	<g id="CIRCLE_3_">
		
			<path fill="none" stroke="#000000" stroke-width="0.01" stroke-linecap="round" stroke-linejoin="round" stroke-miterlimit="10" d="
			M486.605,393.283c0-2.348,1.904-4.252,4.252-4.252s4.252,1.904,4.252,4.252c0,2.348-1.904,4.252-4.252,4.252
			S486.605,395.631,486.605,393.283L486.605,393.283z"/>
	</g>
	<g id="LWPOLYLINE">
		
			<path fill="none" stroke="#000000" stroke-width="0.01" stroke-linecap="round" stroke-linejoin="round" stroke-miterlimit="10" d="
			M503.612,328.491c46.966,0,85.039,38.073,85.039,85.039h17.008v141.732H482.353V328.491H503.612z"/>
	</g>
</g>
<g>
	<g id="CIRCLE_18_">
		
			<path fill="none" stroke="#000000" stroke-width="0.01" stroke-linecap="round" stroke-linejoin="round" stroke-miterlimit="10" d="
			M628.775,431.653c0-2.348-1.904-4.252-4.252-4.252c-2.348,0-4.252,1.904-4.252,4.252s1.904,4.252,4.252,4.252
			C626.872,435.905,628.775,434.001,628.775,431.653L628.775,431.653z"/>
	</g>
	<g id="CIRCLE_17_">
		
			<path fill="none" stroke="#000000" stroke-width="0.01" stroke-linecap="round" stroke-linejoin="round" stroke-miterlimit="10" d="
			M628.775,475.263c0-2.348-1.904-4.252-4.252-4.252c-2.348,0-4.252,1.904-4.252,4.252s1.904,4.252,4.252,4.252
			C626.872,479.515,628.775,477.611,628.775,475.263L628.775,475.263z"/>
	</g>
	<g id="CIRCLE_16_">
		
			<path fill="none" stroke="#000000" stroke-width="0.01" stroke-linecap="round" stroke-linejoin="round" stroke-miterlimit="10" d="
			M735.074,474.273c0-2.348-1.904-4.252-4.252-4.252c-2.348,0-4.252,1.904-4.252,4.252s1.904,4.252,4.252,4.252
			C733.171,478.525,735.074,476.621,735.074,474.273L735.074,474.273z"/>
	</g>
	<g id="CIRCLE_15_">
		
			<path fill="none" stroke="#000000" stroke-width="0.01" stroke-linecap="round" stroke-linejoin="round" stroke-miterlimit="10" d="
			M735.074,393.283c0-2.348-1.904-4.252-4.252-4.252c-2.348,0-4.252,1.904-4.252,4.252s1.904,4.252,4.252,4.252
			C733.171,397.535,735.074,395.631,735.074,393.283L735.074,393.283z"/>
	</g>
	<g id="LWPOLYLINE_2_">
		
			<path fill="none" stroke="#000000" stroke-width="0.01" stroke-linecap="round" stroke-linejoin="round" stroke-miterlimit="10" d="
			M718.067,328.491c-46.966,0-85.039,38.073-85.039,85.039h-17.008v141.732h123.307V328.491H718.067z"/>
	</g>
</g>
<g>
	<g id="CIRCLE_26_">
		
			<path fill="none" stroke="#000000" stroke-width="0.01" stroke-linecap="round" stroke-linejoin="round" stroke-miterlimit="10" d="
			M1520.5,429.601c2.147-0.951,4.659,0.019,5.609,2.166c0.951,2.147-0.019,4.659-2.166,5.609s-4.659-0.019-5.609-2.166
			C1517.382,433.063,1518.352,430.552,1520.5,429.601L1520.5,429.601z"/>
	</g>
	<g id="CIRCLE_25_">
		
			<path fill="none" stroke="#000000" stroke-width="0.01" stroke-linecap="round" stroke-linejoin="round" stroke-miterlimit="10" d="
			M1480.625,447.259c2.147-0.951,4.659,0.019,5.609,2.166c0.951,2.147-0.019,4.659-2.166,5.609
			c-2.147,0.951-4.659-0.019-5.609-2.166C1477.508,450.721,1478.477,448.21,1480.625,447.259L1480.625,447.259z"/>
	</g>
	<g id="CIRCLE_24_">
		
			<path fill="none" stroke="#000000" stroke-width="0.01" stroke-linecap="round" stroke-linejoin="round" stroke-miterlimit="10" d="
			M1438.487,349.663c2.147-0.951,4.659,0.019,5.609,2.166c0.951,2.147-0.019,4.659-2.166,5.609
			c-2.147,0.951-4.659-0.019-5.609-2.166C1435.37,353.125,1436.34,350.614,1438.487,349.663L1438.487,349.663z"/>
	</g>
	<g id="CIRCLE_23_">
		
			<path fill="none" stroke="#000000" stroke-width="0.01" stroke-linecap="round" stroke-linejoin="round" stroke-miterlimit="10" d="
			M1512.541,316.869c2.147-0.951,4.659,0.019,5.609,2.166c0.951,2.147-0.019,4.659-2.166,5.609s-4.659-0.019-5.609-2.166
			C1509.424,320.331,1510.394,317.82,1512.541,316.869L1512.541,316.869z"/>
	</g>
	<g id="LWPOLYLINE_5_">
		
			<path fill="none" stroke="#000000" stroke-width="0.01" stroke-linecap="round" stroke-linejoin="round" stroke-miterlimit="10" d="
			M1578.67,306.185c19.017,42.944-0.379,93.173-43.322,112.19l6.887,15.551l-129.594,57.39l-49.929-112.746l207.35-91.823
			L1578.67,306.185z"/>
	</g>
</g>
<g>
	<g id="CIRCLE_22_">
		
			<path fill="none" stroke="#000000" stroke-width="0.01" stroke-linecap="round" stroke-linejoin="round" stroke-miterlimit="10" d="
			M2065.618,434.613c-1.846-1.451-4.519-1.131-5.97,0.715c-1.451,1.846-1.131,4.519,0.715,5.971c1.846,1.451,4.519,1.131,5.97-0.715
			C2067.784,438.737,2067.464,436.064,2065.618,434.613L2065.618,434.613z"/>
	</g>
	<g id="CIRCLE_21_">
		
			<path fill="none" stroke="#000000" stroke-width="0.01" stroke-linecap="round" stroke-linejoin="round" stroke-miterlimit="10" d="
			M2099.904,461.562c-1.846-1.451-4.52-1.131-5.971,0.715c-1.451,1.846-1.131,4.519,0.715,5.97c1.846,1.451,4.519,1.131,5.971-0.715
			C2102.071,465.687,2101.75,463.014,2099.904,461.562L2099.904,461.562z"/>
	</g>
	<g id="CIRCLE_20_">
		
			<path fill="none" stroke="#000000" stroke-width="0.01" stroke-linecap="round" stroke-linejoin="round" stroke-miterlimit="10" d="
			M2164.816,377.378c-1.846-1.451-4.519-1.131-5.97,0.715c-1.451,1.846-1.131,4.519,0.715,5.971c1.846,1.451,4.519,1.131,5.97-0.715
			C2166.982,381.502,2166.662,378.829,2164.816,377.378L2164.816,377.378z"/>
	</g>
	<g id="CIRCLE_19_">
		
			<path fill="none" stroke="#000000" stroke-width="0.01" stroke-linecap="round" stroke-linejoin="round" stroke-miterlimit="10" d="
			M2101.141,327.329c-1.846-1.451-4.519-1.131-5.97,0.715c-1.451,1.846-1.131,4.519,0.715,5.97s4.519,1.131,5.97-0.715
			C2103.308,331.453,2102.988,328.78,2101.141,327.329L2101.141,327.329z"/>
	</g>
	<g id="LWPOLYLINE_4_">
		
			<path fill="none" stroke="#000000" stroke-width="0.01" stroke-linecap="round" stroke-linejoin="round" stroke-miterlimit="10" d="
			M2039.692,300.661c-29.024,36.925-22.618,90.386,14.306,119.41l-10.51,13.372l111.43,87.586l76.2-96.944L2052.83,283.946
			L2039.692,300.661z"/>
	</g>
</g>
<g>
	<g id="LWPOLYLINE_1_">
		
			<path fill="none" stroke="#000000" stroke-width="0.01" stroke-linecap="round" stroke-linejoin="round" stroke-miterlimit="10" d="
			M1396.391,273.584c-15.655,0-28.346-12.691-28.346-28.346v-49.606c0-15.655,12.691-28.346,28.346-28.346h793.701
			c15.656,0,28.347,12.691,28.347,28.346v49.606c0,15.655-12.691,28.346-28.347,28.346H1396.391z"/>
	</g>
	<g id="CIRCLE_14_">
		
			<path fill="none" stroke="#000000" stroke-width="0.01" stroke-linecap="round" stroke-linejoin="round" stroke-miterlimit="10" d="
			M1672.769,220.434c0-7.828,6.346-14.173,14.173-14.173s14.173,6.346,14.173,14.173s-6.346,14.173-14.173,14.173
			S1672.769,228.262,1672.769,220.434L1672.769,220.434z"/>
	</g>
	<g id="CIRCLE_13_">
		
			<path fill="none" stroke="#000000" stroke-width="0.01" stroke-linecap="round" stroke-linejoin="round" stroke-miterlimit="10" d="
			M1991.667,220.434c0-7.828,6.346-14.173,14.173-14.173s14.173,6.346,14.173,14.173s-6.346,14.173-14.173,14.173
			S1991.667,228.262,1991.667,220.434L1991.667,220.434z"/>
	</g>
	<g id="CIRCLE_12_">
		
			<path fill="none" stroke="#000000" stroke-width="0.01" stroke-linecap="round" stroke-linejoin="round" stroke-miterlimit="10" d="
			M1779.068,220.434c0-7.828,6.346-14.173,14.173-14.173c7.828,0,14.173,6.346,14.173,14.173s-6.346,14.173-14.173,14.173
			C1785.414,234.607,1779.068,228.262,1779.068,220.434L1779.068,220.434z"/>
	</g>
	<g id="CIRCLE_11_">
		
			<path fill="none" stroke="#000000" stroke-width="0.01" stroke-linecap="round" stroke-linejoin="round" stroke-miterlimit="10" d="
			M1566.47,220.434c0-7.828,6.346-14.173,14.173-14.173s14.173,6.346,14.173,14.173s-6.346,14.173-14.173,14.173
			S1566.47,228.262,1566.47,220.434L1566.47,220.434z"/>
	</g>
	<g id="CIRCLE_4_">
		
			<path fill="none" stroke="#000000" stroke-width="0.01" stroke-linecap="round" stroke-linejoin="round" stroke-miterlimit="10" d="
			M2097.966,220.434c0-7.828,6.346-14.173,14.173-14.173s14.173,6.346,14.173,14.173s-6.345,14.173-14.173,14.173
			S2097.966,228.262,2097.966,220.434L2097.966,220.434z"/>
	</g>
	<g id="CIRCLE_5_">
		
			<path fill="none" stroke="#000000" stroke-width="0.01" stroke-linecap="round" stroke-linejoin="round" stroke-miterlimit="10" d="
			M1885.367,220.434c0-7.828,6.345-14.173,14.173-14.173c7.828,0,14.173,6.346,14.173,14.173s-6.346,14.173-14.173,14.173
			C1891.713,234.607,1885.367,228.262,1885.367,220.434L1885.367,220.434z"/>
	</g>
	<g id="CIRCLE_6_">
		
			<path fill="none" stroke="#000000" stroke-width="0.01" stroke-linecap="round" stroke-linejoin="round" stroke-miterlimit="10" d="
			M1460.17,220.434c0-7.828,6.346-14.173,14.173-14.173s14.173,6.346,14.173,14.173s-6.346,14.173-14.173,14.173
			S1460.17,228.262,1460.17,220.434L1460.17,220.434z"/>
	</g>
	<g id="CIRCLE_7_">
		
			<path fill="none" stroke="#000000" stroke-width="0.01" stroke-linecap="round" stroke-linejoin="round" stroke-miterlimit="10" d="
			M1865.696,245.946c0-2.348,1.904-4.252,4.252-4.252c2.348,0,4.252,1.904,4.252,4.252s-1.904,4.252-4.252,4.252
			C1867.6,250.198,1865.696,248.294,1865.696,245.946L1865.696,245.946z"/>
	</g>
	<g id="CIRCLE_8_">
		
			<path fill="none" stroke="#000000" stroke-width="0.01" stroke-linecap="round" stroke-linejoin="round" stroke-miterlimit="10" d="
			M1712.282,194.922c0-2.348,1.904-4.252,4.252-4.252c2.348,0,4.252,1.904,4.252,4.252s-1.904,4.252-4.252,4.252
			C1714.186,199.174,1712.282,197.271,1712.282,194.922L1712.282,194.922z"/>
	</g>
	<g id="CIRCLE_9_">
		
			<path fill="none" stroke="#000000" stroke-width="0.01" stroke-linecap="round" stroke-linejoin="round" stroke-miterlimit="10" d="
			M1865.696,194.922c0-2.348,1.904-4.252,4.252-4.252c2.348,0,4.252,1.904,4.252,4.252s-1.904,4.252-4.252,4.252
			C1867.6,199.174,1865.696,197.271,1865.696,194.922L1865.696,194.922z"/>
	</g>
	<g id="CIRCLE_10_">
		
			<path fill="none" stroke="#000000" stroke-width="0.01" stroke-linecap="round" stroke-linejoin="round" stroke-miterlimit="10" d="
			M1712.282,245.946c0-2.348,1.904-4.252,4.252-4.252c2.348,0,4.252,1.904,4.252,4.252s-1.904,4.252-4.252,4.252
			C1714.186,250.198,1712.282,248.294,1712.282,245.946L1712.282,245.946z"/>
	</g>
</g>
<g>
	<g id="LWPOLYLINE_3_">
		
			<path fill="none" stroke="#000000" stroke-width="0.01" stroke-linecap="round" stroke-linejoin="round" stroke-miterlimit="10" d="
			M2199.841,82.146h-90.479c-46.203,0-87.785,28.035-105.111,70.866h-425.197c-17.326-42.831-58.908-70.866-105.111-70.866h-90.479
			V11.28h816.378V82.146z"/>
	</g>
</g>
<g>
	<g id="LWPOLYLINE_6_">
		
			<path fill="none" stroke="#000000" stroke-width="0.01" stroke-linecap="round" stroke-linejoin="round" stroke-miterlimit="10" d="
			M837.611,441.877V328.491h212.598v226.772c0,187.864-152.294,340.157-340.157,340.157H539.973
			c-187.864,0-340.157-152.294-340.157-340.157V328.491h212.598v113.386c0,93.932,76.147,170.079,170.079,170.079h85.039
			C761.464,611.955,837.611,535.809,837.611,441.877z"/>
	</g>
	<g id="CIRCLE_30_">
		
			<path fill="none" stroke="#000000" stroke-width="0.01" stroke-linecap="round" stroke-linejoin="round" stroke-miterlimit="10" d="
			M699.057,799.042c0,3.914-3.173,7.087-7.087,7.087s-7.087-3.173-7.087-7.087s3.173-7.087,7.087-7.087
			S699.057,795.128,699.057,799.042L699.057,799.042z"/>
	</g>
	<g id="CIRCLE_29_">
		
			<path fill="none" stroke="#000000" stroke-width="0.01" stroke-linecap="round" stroke-linejoin="round" stroke-miterlimit="10" d="
			M457.426,799.042c0,3.914-3.173,7.087-7.087,7.087c-3.914,0-7.087-3.173-7.087-7.087s3.173-7.087,7.087-7.087
			C454.253,791.955,457.426,795.128,457.426,799.042L457.426,799.042z"/>
	</g>
	<g id="CIRCLE_28_">
		
			<path fill="none" stroke="#000000" stroke-width="0.01" stroke-linecap="round" stroke-linejoin="round" stroke-miterlimit="10" d="
			M565.142,799.042c0,3.914-3.173,7.087-7.087,7.087s-7.087-3.173-7.087-7.087s3.173-7.087,7.087-7.087
			S565.142,795.128,565.142,799.042L565.142,799.042z"/>
	</g>
	<g id="CIRCLE_27_">
		
			<path fill="none" stroke="#000000" stroke-width="0.01" stroke-linecap="round" stroke-linejoin="round" stroke-miterlimit="10" d="
			M806.773,799.042c0,3.914-3.173,7.087-7.087,7.087s-7.087-3.173-7.087-7.087s3.173-7.087,7.087-7.087
			S806.773,795.128,806.773,799.042L806.773,799.042z"/>
	</g>
</g>
<rect id="outline_x5F_cut" x="0" y="0" fill="none" stroke="#000000" stroke-width="0.01" stroke-linecap="round" stroke-linejoin="round" stroke-miterlimit="10" width="2236.535" height="977.953"/>
<g>
	<g id="CIRCLE_36_">
		
			<path fill="none" stroke="#000000" stroke-width="0.01" stroke-linecap="round" stroke-linejoin="round" stroke-miterlimit="10" d="
			M1622.766,542.799c0-2.348,1.904-4.252,4.252-4.252s4.252,1.904,4.252,4.252c0,2.348-1.904,4.252-4.252,4.252
			S1622.766,545.147,1622.766,542.799L1622.766,542.799z"/>
	</g>
	<g id="CIRCLE_35_">
		
			<path fill="none" stroke="#000000" stroke-width="0.01" stroke-linecap="round" stroke-linejoin="round" stroke-miterlimit="10" d="
			M1710.641,542.799c0-2.348,1.904-4.252,4.252-4.252c2.348,0,4.252,1.904,4.252,4.252c0,2.348-1.904,4.252-4.252,4.252
			C1712.544,547.051,1710.641,545.147,1710.641,542.799L1710.641,542.799z"/>
	</g>
	<g id="CIRCLE_34_">
		
			<path fill="none" stroke="#000000" stroke-width="0.01" stroke-linecap="round" stroke-linejoin="round" stroke-miterlimit="10" d="
			M1622.766,454.925c0-2.348,1.904-4.252,4.252-4.252s4.252,1.904,4.252,4.252s-1.904,4.252-4.252,4.252
			S1622.766,457.273,1622.766,454.925L1622.766,454.925z"/>
	</g>
	<g id="CIRCLE_33_">
		
			<path fill="none" stroke="#000000" stroke-width="0.01" stroke-linecap="round" stroke-linejoin="round" stroke-miterlimit="10" d="
			M1710.641,454.925c0-2.348,1.904-4.252,4.252-4.252c2.348,0,4.252,1.904,4.252,4.252s-1.904,4.252-4.252,4.252
			C1712.544,459.177,1710.641,457.273,1710.641,454.925L1710.641,454.925z"/>
	</g>
	<g id="CIRCLE_32_">
		
			<path fill="none" stroke="#000000" stroke-width="0.01" stroke-linecap="round" stroke-linejoin="round" stroke-miterlimit="10" d="
			M1959.24,498.866c0-3.914,3.173-7.087,7.087-7.087c3.914,0,7.087,3.173,7.087,7.087s-3.173,7.087-7.087,7.087
			C1962.412,505.952,1959.24,502.779,1959.24,498.866L1959.24,498.866z"/>
	</g>
	<g id="CIRCLE_31_">
		
			<path fill="none" stroke="#000000" stroke-width="0.01" stroke-linecap="round" stroke-linejoin="round" stroke-miterlimit="10" d="
			M1851.523,498.866c0-3.914,3.173-7.087,7.087-7.087s7.087,3.173,7.087,7.087s-3.173,7.087-7.087,7.087
			S1851.523,502.779,1851.523,498.866L1851.523,498.866z"/>
	</g>
	<g id="LWPOLYLINE_7_">
		
			<path fill="none" stroke="#000000" stroke-width="0.01" stroke-linecap="round" stroke-linejoin="round" stroke-miterlimit="10" d="
			M1383.464,742.645c0-187.864,152.294-340.158,340.157-340.158h136.063c187.864,0,340.157,152.294,340.157,340.158v226.772
			h-816.378V742.645z"/>
	</g>
</g>
</svg>
