<?xml version="1.0" encoding="UTF-8" standalone="no"?>
<!DOCTYPE svg PUBLIC "-//W3C//DTD SVG 1.1//EN" "http://www.w3.org/Graphics/SVG/1.1/DTD/svg11.dtd">
<svg width="100%" height="100%" viewBox="0 0 11812 8268" version="1.1" xmlns="http://www.w3.org/2000/svg" xmlns:xlink="http://www.w3.org/1999/xlink" xml:space="preserve" xmlns:serif="http://www.serif.com/" style="fill-rule:evenodd;clip-rule:evenodd;stroke-linecap:round;stroke-linejoin:round;stroke-miterlimit:1.5;">
    <g transform="matrix(0.422126,0,0,0.422126,-130.213,-143.85)">
        <path d="M3720.95,2043.36L1286.24,2043.36C824.125,2043.36 448.947,1914.42 448.947,1452.31C448.947,990.193 824.125,874.553 1286.24,874.553L3720.95,874.553C3794.38,874.553 3806.53,934.081 3806.53,1007.51C3806.53,1320.87 3806.53,1597.05 3806.53,1910.4C3806.53,1983.84 3794.39,2043.36 3720.95,2043.36Z" style="fill:none;stroke:black;stroke-width:9.87px;"/>
    </g>
    <g transform="matrix(0.422126,0,0,0.422126,-130.213,-143.85)">
        <circle cx="882.315" cy="1452.31" r="151.642" style="fill:none;stroke:black;stroke-width:9.87px;"/>
    </g>
    <g transform="matrix(1.24312,0,0,1.24312,-253.11,-134.305)">
        <path d="M562.821,413.939L599.502,493.56L636.037,413.939L672.864,413.939L599.211,565.466L526.14,413.939L562.821,413.939Z" style="fill-rule:nonzero;"/>
    </g>
    <g transform="matrix(1.24312,0,0,1.24312,-253.11,-134.305)">
        <path d="M712.602,413.939L749.282,493.56L785.818,413.939L822.644,413.939L748.991,565.466L675.921,413.939L712.602,413.939Z" style="fill-rule:nonzero;"/>
    </g>
    <g transform="matrix(1.24312,0,0,1.24312,-253.11,-134.305)">
        <path d="M891.785,524.855L976.063,524.855L976.063,555.714L826.865,555.714L918.713,444.507L846.37,444.507L846.37,413.939L983.487,413.939L891.785,524.855Z" style="fill-rule:nonzero;"/>
    </g>
    <g transform="matrix(1.24312,0,0,1.24312,-253.11,-134.305)">
        <path d="M1135.89,492.541L1034.29,492.541C1035.16,504.186 1038.94,513.453 1045.64,520.343C1052.34,527.136 1060.92,530.532 1071.4,530.532C1079.56,530.532 1086.3,528.591 1091.64,524.71C1096.88,520.828 1102.85,513.647 1109.54,503.167L1137.2,518.596C1132.93,525.874 1128.41,532.109 1123.66,537.3C1118.9,542.492 1113.81,546.762 1108.38,550.11C1102.94,553.457 1097.07,555.908 1090.76,557.46C1084.46,559.013 1077.62,559.789 1070.24,559.789C1049.09,559.789 1032.1,552.997 1019.29,539.411C1006.49,525.728 1000.08,507.582 1000.08,484.972C1000.08,462.556 1006.29,444.409 1018.71,430.533C1031.23,416.85 1047.82,410.009 1068.49,410.009C1089.36,410.009 1105.85,416.656 1117.98,429.951C1130.02,443.148 1136.03,461.44 1136.03,484.826L1135.89,492.541ZM1102.26,465.758C1097.7,448.291 1086.69,439.558 1069.22,439.558C1065.24,439.558 1061.51,440.164 1058.01,441.377C1054.52,442.59 1051.34,444.337 1048.48,446.617C1045.62,448.898 1043.17,451.639 1041.13,454.841C1039.09,458.044 1037.54,461.682 1036.47,465.758L1102.26,465.758Z" style="fill-rule:nonzero;"/>
    </g>
    <g transform="matrix(1.24312,0,0,1.24312,-253.11,-134.305)">
        <path d="M1171.69,413.939L1204.59,413.939L1204.59,427.039C1216.04,415.686 1228.95,410.009 1243.31,410.009C1259.81,410.009 1272.66,415.201 1281.88,425.584C1289.84,434.414 1293.82,448.825 1293.82,468.815L1293.82,555.714L1260.92,555.714L1260.92,476.53C1260.92,462.556 1258.98,452.9 1255.1,447.563C1251.32,442.129 1244.43,439.412 1234.43,439.412C1223.56,439.412 1215.85,443.002 1211.29,450.183C1206.82,457.267 1204.59,469.64 1204.59,487.301L1204.59,555.714L1171.69,555.714L1171.69,413.939Z" style="fill-rule:nonzero;"/>
    </g>
</svg>
