<svg xmlns:sodipodi="http://sodipodi.sourceforge.net/DTD/sodipodi-0.dtd" width="744.094488189" height="1052.36220472"><desc>back.dxf - scale = 1.000000, origin = (0.000000, 0.000000), auto = True</desc><defs><marker id="DistanceX" orient="auto" refX="0.0" refY="0.0" style="overflow:visible"><path d="M 3,-3 L -3,3 M 0,-5 L  0,5" style="stroke:#000000; stroke-width:0.5"/></marker><pattern height="8" id="Hatch" patternUnits="userSpaceOnUse" width="8" x="0" y="0"><path d="M8 4 l-4,4" linecap="square" stroke="#000000" stroke-width="0.25"/><path d="M6 2 l-4,4" linecap="square" stroke="#000000" stroke-width="0.25"/><path d="M4 0 l-4,4" linecap="square" stroke="#000000" stroke-width="0.25"/></pattern><symbol id="*MODEL_SPACE"/><symbol id="*PAPER_SPACE"/></defs><g xmlns:ns0="http://www.inkscape.org/namespaces/inkscape" ns0:groupmode="layer" ns0:label="0"><path d="M 59.350394,634.251969 L 318.897638,634.251969 L 318.897638,644.881890 L 308.267717,644.881890 L 308.267717,694.488189 L 318.897638,694.488189 L 318.897638,744.094488 L 308.267717,744.094488 L 308.267717,793.700787 L 318.897638,793.700787 L 318.897638,843.307087 L 308.267717,843.307087 L 308.267717,892.913386 L 318.897638,892.913386 L 318.897638,942.519685 L 308.267717,942.519685 L 308.267717,992.125984 L 318.897638,992.125984 L 318.897638,1052.362205 L 59.350394,1052.362205 L 59.350394,1041.732283 L -200.196850,1041.732283 L -200.196850,1052.362205 L -459.744094,1052.362205 L -459.744094,1041.732283 L -719.291339,1041.732283 L -719.291339,992.125984 L -708.661417,992.125984 L -708.661417,942.519685 L -719.291339,942.519685 L -719.291339,892.913386 L -708.661417,892.913386 L -708.661417,843.307087 L -719.291339,843.307087 L -719.291339,793.700787 L -708.661417,793.700787 L -708.661417,744.094488 L -719.291339,744.094488 L -719.291339,694.488189 L -708.661417,694.488189 L -708.661417,644.881890 L -459.744094,644.881890 L -459.744094,634.251969 L -200.196850,634.251969 L -200.196850,644.881890 L 59.350394,644.881890 L 59.350394,634.251969 z" style="stroke:#000000;fill:none"/></g></svg>