0
SECTION
2
HEADER
9
$INSUNITS
70
4
9
$ACADVER
1
AC1014
9
$HANDSEED
5
FFFF
0
ENDSEC
0
SECTION
2
TABLES
0
TABLE
2
VPORT
5
8
100
AcDbSymbolTable
0
ENDTAB
0
TABLE
2
LTYPE
5
5
100
AcDbSymbolTable
0
LTYPE
5
14
100
AcDbSymbolTableRecord
100
AcDbLinetypeTableRecord
2
BYBLOCK
70
0
0
LTYPE
5
15
100
AcDbSymbolTableRecord
100
AcDbLinetypeTableRecord
2
BYLAYER
70
0
0
ENDTAB
0
TABLE
2
LAYER
5
2
100
AcDbSymbolTable
70
2
0
LAYER
5
50
100
AcDbSymbolTableRecord
100
AcDbLayerTableRecord
2
0
70
0
6
CONTINUOUS
0
ENDTAB
0
TABLE
2
STYLE
5
3
100
AcDbSymbolTable
70
1
0
STYLE
5
11
100
AcDbSymbolTableRecord
100
AcDbTextStyleTableRecord
2
STANDARD
70
0
0
ENDTAB
0
TABLE
2
VIEW
5
6
100
AcDbSymbolTable
70
0
0
ENDTAB
0
TABLE
2
UCS
5
7
100
AcDbSymbolTable
70
0
0
ENDTAB
0
TABLE
2
APPID
5
9
100
AcDbSymbolTable
70
2
0
APPID
5
12
100
AcDbSymbolTableRecord
100
AcDbRegAppTableRecord
2
ACAD
70
0
0
ENDTAB
0
TABLE
2
DIMSTYLE
5
A
100
AcDbSymbolTable
70
1
0
ENDTAB
0
TABLE
2
BLOCK_RECORD
5
1
100
AcDbSymbolTable
70
1
0
BLOCK_RECORD
5
1F
100
AcDbSymbolTableRecord
100
AcDbBlockTableRecord
2
*MODEL_SPACE
0
BLOCK_RECORD
5
1B
100
AcDbSymbolTableRecord
100
AcDbBlockTableRecord
2
*PAPER_SPACE
0
ENDTAB
0
ENDSEC
0
SECTION
2
BLOCKS
0
BLOCK
5
20
100
AcDbEntity
100
AcDbBlockBegin
2
*MODEL_SPACE
0
ENDBLK
5
21
100
AcDbEntity
100
AcDbBlockEnd
0
BLOCK
5
1C
100
AcDbEntity
100
AcDbBlockBegin
2
*PAPER_SPACE
0
ENDBLK
5
1D
100
AcDbEntity
100
AcDbBlockEnd
0
ENDSEC
0
SECTION
2
ENTITIES
0
LWPOLYLINE
5
100
100
AcDbEntity
8
0
100
AcDbPolyline
90
46
70
1
43
0.0
10
16.750000000000007
20
118
10
90
20
117.99999999999999
10
90
20
115
10
87
20
115
10
87
20
101
10
90
20
101
10
90
20
87.000000000000014
10
87.000000000000057
20
87
10
87
20
73
10
90
20
73
10
90
20
59
10
87.000000000000057
20
59
10
87
20
45
10
90
20
45
10
90.000000000000071
20
30.999999999999979
10
87.000000000000057
20
30.999999999999996
10
87
20
17
10
90
20
17
10
90
20
0
10
16.749999999999989
20
0
10
16.749999999999989
20
3.0000000000000004
10
-56.500000000000021
20
3.0000000000000004
10
-56.500000000000021
20
0
10
-129.75
20
0
10
-129.75
20
3.0000000000000004
10
-203.00000000000006
20
3.0000000000000004
10
-203
20
17
10
-200
20
17
10
-200.00000000000006
20
30.999999999999996
10
-203
20
31.000000000000007
10
-203
20
45
10
-200
20
45
10
-200.00000000000006
20
59
10
-203
20
59
10
-203
20
73
10
-200
20
73
10
-200.00000000000006
20
87
10
-203
20
87.000000000000014
10
-203
20
101
10
-200
20
101
10
-200.00000000000006
20
115.00000000000003
10
-129.75
20
115.00000000000003
10
-129.75
20
118.00000000000003
10
-56.500000000000021
20
118
10
-56.5
20
115
10
16.750000000000007
20
115
0
ENDSEC
0
SECTION
2
OBJECTS
0
DICTIONARY
5
C
100
AcDbDictionary
3
ACAD_GROUP
350
D
3
ACAD_MLINESTYLE
350
17
0
DICTIONARY
5
D
100
AcDbDictionary
0
DICTIONARY
5
1A
330
C
100
AcDbDictionary
0
DICTIONARY
5
17
100
AcDbDictionary
0
ENDSEC
0
EOF
