<?xml version="1.0" encoding="UTF-8" standalone="no"?>
<!DOCTYPE svg PUBLIC "-//W3C//DTD SVG 1.1//EN" "http://www.w3.org/Graphics/SVG/1.1/DTD/svg11.dtd">
<svg width="100%" height="100%" viewBox="0 0 596 842" version="1.1" xmlns="http://www.w3.org/2000/svg" xmlns:xlink="http://www.w3.org/1999/xlink" xml:space="preserve" xmlns:serif="http://www.serif.com/" style="fill-rule:evenodd;clip-rule:evenodd;">
    <g transform="matrix(1,0,0,1,0.78794,-0.831042)">
        <g transform="matrix(134.846,0,0,134.846,1563.91,-111925)">
            <path d="M-11.022,831.718L-10.65,831.718" style="fill:none;stroke:black;stroke-width:0.01px;"/>
        </g>
        <g transform="matrix(134.846,0,0,134.846,1563.91,-111925)">
            <path d="M-10.774,831.47L-10.588,831.47" style="fill:none;stroke:black;stroke-width:0.01px;"/>
        </g>
        <g transform="matrix(134.846,0,0,134.846,1563.91,-111925)">
            <path d="M-10.898,831.47L-11.085,831.47" style="fill:none;stroke:black;stroke-width:0.01px;"/>
        </g>
        <g transform="matrix(134.846,0,0,134.846,1563.91,-111925)">
            <path d="M-11.022,831.222L-10.65,831.222" style="fill:none;stroke:black;stroke-width:0.01px;"/>
        </g>
        <g transform="matrix(134.846,0,0,134.846,1563.91,-111925)">
            <path d="M-9.323,830.786C-9.323,830.736 -9.343,830.716 -9.362,830.706C-9.38,830.696 -9.397,830.696 -9.413,830.696C-9.43,830.696 -9.447,830.696 -9.462,830.702C-9.477,830.709 -9.49,830.723 -9.497,830.738C-9.504,830.753 -9.504,830.769 -9.504,830.786C-9.504,830.803 -9.504,830.819 -9.497,830.834C-9.49,830.849 -9.477,830.863 -9.462,830.87C-9.447,830.876 -9.43,830.876 -9.413,830.876C-9.397,830.876 -9.38,830.876 -9.362,830.866C-9.343,830.856 -9.323,830.836 -9.323,830.786" style="fill:none;stroke:black;stroke-width:0.01px;stroke-linecap:round;stroke-linejoin:round;"/>
        </g>
        <g transform="matrix(134.846,0,0,134.846,1563.91,-111925)">
            <path d="M-8.876,836.209L-8.628,836.209" style="fill:none;stroke:black;stroke-width:0.01px;"/>
        </g>
        <g transform="matrix(134.846,0,0,134.846,1563.91,-111925)">
            <path d="M-8.734,836.15L-8.87,836.15" style="fill:none;stroke:black;stroke-width:0.01px;"/>
        </g>
        <g transform="matrix(134.846,0,0,134.846,1563.91,-111925)">
            <path d="M-8.644,836.15L-8.508,836.15" style="fill:none;stroke:black;stroke-width:0.01px;"/>
        </g>
        <g transform="matrix(134.846,0,0,134.846,1563.91,-111925)">
            <path d="M-8.774,836.091L-8.479,836.091" style="fill:none;stroke:black;stroke-width:0.01px;"/>
        </g>
        <g transform="matrix(134.846,0,0,134.846,1563.91,-111925)">
            <path d="M-9.207,836.209L-8.959,836.209" style="fill:none;stroke:black;stroke-width:0.01px;"/>
        </g>
        <g transform="matrix(134.846,0,0,134.846,1563.91,-111925)">
            <path d="M-9.096,836.15L-9.232,836.15" style="fill:none;stroke:black;stroke-width:0.01px;"/>
        </g>
        <g transform="matrix(134.846,0,0,134.846,1563.91,-111925)">
            <path d="M-9.006,836.15L-8.87,836.15" style="fill:none;stroke:black;stroke-width:0.01px;"/>
        </g>
        <g transform="matrix(134.846,0,0,134.846,1563.91,-111925)">
            <path d="M-9.167,836.091L-8.872,836.091" style="fill:none;stroke:black;stroke-width:0.01px;"/>
        </g>
        <g transform="matrix(134.846,0,0,134.846,1563.91,-111925)">
            <path d="M-9.537,836.209L-9.289,836.209" style="fill:none;stroke:black;stroke-width:0.01px;"/>
        </g>
        <g transform="matrix(134.846,0,0,134.846,1563.91,-111925)">
            <path d="M-9.459,836.15L-9.594,836.15" style="fill:none;stroke:black;stroke-width:0.01px;"/>
        </g>
        <g transform="matrix(134.846,0,0,134.846,1563.91,-111925)">
            <path d="M-9.368,836.15L-9.232,836.15" style="fill:none;stroke:black;stroke-width:0.01px;"/>
        </g>
        <g transform="matrix(134.846,0,0,134.846,1563.91,-111925)">
            <path d="M-9.561,836.091L-9.266,836.091" style="fill:none;stroke:black;stroke-width:0.01px;"/>
        </g>
        <g transform="matrix(134.846,0,0,134.846,1563.91,-111925)">
            <path d="M-9.868,836.209L-9.62,836.209" style="fill:none;stroke:black;stroke-width:0.01px;"/>
        </g>
        <g transform="matrix(134.846,0,0,134.846,1563.91,-111925)">
            <path d="M-9.821,836.15L-9.956,836.15" style="fill:none;stroke:black;stroke-width:0.01px;"/>
        </g>
        <g transform="matrix(134.846,0,0,134.846,1563.91,-111925)">
            <path d="M-9.73,836.15L-9.594,836.15" style="fill:none;stroke:black;stroke-width:0.01px;"/>
        </g>
        <g transform="matrix(134.846,0,0,134.846,1563.91,-111925)">
            <path d="M-9.954,836.091L-9.659,836.091" style="fill:none;stroke:black;stroke-width:0.01px;"/>
        </g>
        <g transform="matrix(134.846,0,0,134.846,1563.91,-111925)">
            <path d="M-10.198,836.209L-9.95,836.209" style="fill:none;stroke:black;stroke-width:0.01px;"/>
        </g>
        <g transform="matrix(134.846,0,0,134.846,1563.91,-111925)">
            <path d="M-10.183,836.15L-10.318,836.15" style="fill:none;stroke:black;stroke-width:0.01px;"/>
        </g>
        <g transform="matrix(134.846,0,0,134.846,1563.91,-111925)">
            <path d="M-10.092,836.15L-9.956,836.15" style="fill:none;stroke:black;stroke-width:0.01px;"/>
        </g>
        <g transform="matrix(134.846,0,0,134.846,1563.91,-111925)">
            <path d="M-10.348,836.091L-10.053,836.091" style="fill:none;stroke:black;stroke-width:0.01px;"/>
        </g>
        <g transform="matrix(134.846,0,0,134.846,1563.91,-111925)">
            <path d="M-8.774,836.091L-8.479,836.091" style="fill:none;stroke:black;stroke-width:0.01px;"/>
        </g>
        <g transform="matrix(134.846,0,0,134.846,1563.91,-111925)">
            <path d="M-8.619,836.028L-8.778,836.028" style="fill:none;stroke:black;stroke-width:0.01px;"/>
        </g>
        <g transform="matrix(134.846,0,0,134.846,1563.91,-111925)">
            <path d="M-8.513,836.028L-8.354,836.028" style="fill:none;stroke:black;stroke-width:0.01px;"/>
        </g>
        <g transform="matrix(134.846,0,0,134.846,1563.91,-111925)">
            <path d="M-8.675,835.964L-8.335,835.964" style="fill:none;stroke:black;stroke-width:0.01px;"/>
        </g>
        <g transform="matrix(134.846,0,0,134.846,1563.91,-111925)">
            <path d="M-9.167,836.091L-8.872,836.091" style="fill:none;stroke:black;stroke-width:0.01px;"/>
        </g>
        <g transform="matrix(134.846,0,0,134.846,1563.91,-111925)">
            <path d="M-9.042,836.028L-9.201,836.028" style="fill:none;stroke:black;stroke-width:0.01px;"/>
        </g>
        <g transform="matrix(134.846,0,0,134.846,1563.91,-111925)">
            <path d="M-8.937,836.028L-8.778,836.028" style="fill:none;stroke:black;stroke-width:0.01px;"/>
        </g>
        <g transform="matrix(134.846,0,0,134.846,1563.91,-111925)">
            <path d="M-9.13,835.964L-8.789,835.964" style="fill:none;stroke:black;stroke-width:0.01px;"/>
        </g>
        <g transform="matrix(134.846,0,0,134.846,1563.91,-111925)">
            <path d="M-9.561,836.091L-9.266,836.091" style="fill:none;stroke:black;stroke-width:0.01px;"/>
        </g>
        <g transform="matrix(134.846,0,0,134.846,1563.91,-111925)">
            <path d="M-9.466,836.028L-9.625,836.028" style="fill:none;stroke:black;stroke-width:0.01px;"/>
        </g>
        <g transform="matrix(134.846,0,0,134.846,1563.91,-111925)">
            <path d="M-9.36,836.028L-9.201,836.028" style="fill:none;stroke:black;stroke-width:0.01px;"/>
        </g>
        <g transform="matrix(134.846,0,0,134.846,1563.91,-111925)">
            <path d="M-9.584,835.964L-9.243,835.964" style="fill:none;stroke:black;stroke-width:0.01px;"/>
        </g>
        <g transform="matrix(134.846,0,0,134.846,1563.91,-111925)">
            <path d="M-9.954,836.091L-9.659,836.091" style="fill:none;stroke:black;stroke-width:0.01px;"/>
        </g>
        <g transform="matrix(134.846,0,0,134.846,1563.91,-111925)">
            <path d="M-9.89,836.028L-10.049,836.028" style="fill:none;stroke:black;stroke-width:0.01px;"/>
        </g>
        <g transform="matrix(134.846,0,0,134.846,1563.91,-111925)">
            <path d="M-9.784,836.028L-9.625,836.028" style="fill:none;stroke:black;stroke-width:0.01px;"/>
        </g>
        <g transform="matrix(134.846,0,0,134.846,1563.91,-111925)">
            <path d="M-10.038,835.964L-9.697,835.964" style="fill:none;stroke:black;stroke-width:0.01px;"/>
        </g>
        <g transform="matrix(134.846,0,0,134.846,1563.91,-111925)">
            <path d="M-10.348,836.091L-10.053,836.091" style="fill:none;stroke:black;stroke-width:0.01px;"/>
        </g>
        <g transform="matrix(134.846,0,0,134.846,1563.91,-111925)">
            <path d="M-10.314,836.028L-10.473,836.028" style="fill:none;stroke:black;stroke-width:0.01px;"/>
        </g>
        <g transform="matrix(134.846,0,0,134.846,1563.91,-111925)">
            <path d="M-10.208,836.028L-10.049,836.028" style="fill:none;stroke:black;stroke-width:0.01px;"/>
        </g>
        <g transform="matrix(134.846,0,0,134.846,1563.91,-111925)">
            <path d="M-10.492,835.964L-10.151,835.964" style="fill:none;stroke:black;stroke-width:0.01px;"/>
        </g>
        <g transform="matrix(134.846,0,0,134.846,1563.91,-111925)">
            <path d="M-8.675,835.964L-8.335,835.964" style="fill:none;stroke:black;stroke-width:0.01px;"/>
        </g>
        <g transform="matrix(134.846,0,0,134.846,1563.91,-111925)">
            <path d="M-8.508,835.896L-8.689,835.896" style="fill:none;stroke:black;stroke-width:0.01px;"/>
        </g>
        <g transform="matrix(134.846,0,0,134.846,1563.91,-111925)">
            <path d="M-8.388,835.896L-8.207,835.896" style="fill:none;stroke:black;stroke-width:0.01px;"/>
        </g>
        <g transform="matrix(134.846,0,0,134.846,1563.91,-111925)">
            <path d="M-8.582,835.829L-8.199,835.829" style="fill:none;stroke:black;stroke-width:0.01px;"/>
        </g>
        <g transform="matrix(134.846,0,0,134.846,1563.91,-111925)">
            <path d="M-9.13,835.964L-8.789,835.964" style="fill:none;stroke:black;stroke-width:0.01px;"/>
        </g>
        <g transform="matrix(134.846,0,0,134.846,1563.91,-111925)">
            <path d="M-8.991,835.896L-9.172,835.896" style="fill:none;stroke:black;stroke-width:0.01px;"/>
        </g>
        <g transform="matrix(134.846,0,0,134.846,1563.91,-111925)">
            <path d="M-8.87,835.896L-8.689,835.896" style="fill:none;stroke:black;stroke-width:0.01px;"/>
        </g>
        <g transform="matrix(134.846,0,0,134.846,1563.91,-111925)">
            <path d="M-9.094,835.829L-8.71,835.829" style="fill:none;stroke:black;stroke-width:0.01px;"/>
        </g>
        <g transform="matrix(134.846,0,0,134.846,1563.91,-111925)">
            <path d="M-9.584,835.964L-9.243,835.964" style="fill:none;stroke:black;stroke-width:0.01px;"/>
        </g>
        <g transform="matrix(134.846,0,0,134.846,1563.91,-111925)">
            <path d="M-9.474,835.896L-9.655,835.896" style="fill:none;stroke:black;stroke-width:0.01px;"/>
        </g>
        <g transform="matrix(134.846,0,0,134.846,1563.91,-111925)">
            <path d="M-9.353,835.896L-9.172,835.896" style="fill:none;stroke:black;stroke-width:0.01px;"/>
        </g>
        <g transform="matrix(134.846,0,0,134.846,1563.91,-111925)">
            <path d="M-9.605,835.829L-9.222,835.829" style="fill:none;stroke:black;stroke-width:0.01px;"/>
        </g>
        <g transform="matrix(134.846,0,0,134.846,1563.91,-111925)">
            <path d="M-10.038,835.964L-9.697,835.964" style="fill:none;stroke:black;stroke-width:0.01px;"/>
        </g>
        <g transform="matrix(134.846,0,0,134.846,1563.91,-111925)">
            <path d="M-9.956,835.896L-10.137,835.896" style="fill:none;stroke:black;stroke-width:0.01px;"/>
        </g>
        <g transform="matrix(134.846,0,0,134.846,1563.91,-111925)">
            <path d="M-9.836,835.896L-9.655,835.896" style="fill:none;stroke:black;stroke-width:0.01px;"/>
        </g>
        <g transform="matrix(134.846,0,0,134.846,1563.91,-111925)">
            <path d="M-10.116,835.829L-9.733,835.829" style="fill:none;stroke:black;stroke-width:0.01px;"/>
        </g>
        <g transform="matrix(134.846,0,0,134.846,1563.91,-111925)">
            <path d="M-10.492,835.964L-10.151,835.964" style="fill:none;stroke:black;stroke-width:0.01px;"/>
        </g>
        <g transform="matrix(134.846,0,0,134.846,1563.91,-111925)">
            <path d="M-10.439,835.896L-10.62,835.896" style="fill:none;stroke:black;stroke-width:0.01px;"/>
        </g>
        <g transform="matrix(134.846,0,0,134.846,1563.91,-111925)">
            <path d="M-10.318,835.896L-10.137,835.896" style="fill:none;stroke:black;stroke-width:0.01px;"/>
        </g>
        <g transform="matrix(134.846,0,0,134.846,1563.91,-111925)">
            <path d="M-10.628,835.829L-10.244,835.829" style="fill:none;stroke:black;stroke-width:0.01px;"/>
        </g>
        <g transform="matrix(134.846,0,0,134.846,1563.91,-111925)">
            <path d="M-8.582,835.829L-8.199,835.829" style="fill:none;stroke:black;stroke-width:0.01px;"/>
        </g>
        <g transform="matrix(134.846,0,0,134.846,1563.91,-111925)">
            <path d="M-8.405,835.756L-8.606,835.756" style="fill:none;stroke:black;stroke-width:0.01px;"/>
        </g>
        <g transform="matrix(134.846,0,0,134.846,1563.91,-111925)">
            <path d="M-8.27,835.756L-8.068,835.756" style="fill:none;stroke:black;stroke-width:0.01px;"/>
        </g>
        <g transform="matrix(134.846,0,0,134.846,1563.91,-111925)">
            <path d="M-8.496,835.684L-8.072,835.684" style="fill:none;stroke:black;stroke-width:0.01px;"/>
        </g>
        <g transform="matrix(134.846,0,0,134.846,1563.91,-111925)">
            <path d="M-9.094,835.829L-8.71,835.829" style="fill:none;stroke:black;stroke-width:0.01px;"/>
        </g>
        <g transform="matrix(134.846,0,0,134.846,1563.91,-111925)">
            <path d="M-8.943,835.756L-9.144,835.756" style="fill:none;stroke:black;stroke-width:0.01px;"/>
        </g>
        <g transform="matrix(134.846,0,0,134.846,1563.91,-111925)">
            <path d="M-8.808,835.756L-8.606,835.756" style="fill:none;stroke:black;stroke-width:0.01px;"/>
        </g>
        <g transform="matrix(134.846,0,0,134.846,1563.91,-111925)">
            <path d="M-9.06,835.684L-8.637,835.684" style="fill:none;stroke:black;stroke-width:0.01px;"/>
        </g>
        <g transform="matrix(134.846,0,0,134.846,1563.91,-111925)">
            <path d="M-9.605,835.829L-9.222,835.829" style="fill:none;stroke:black;stroke-width:0.01px;"/>
        </g>
        <g transform="matrix(134.846,0,0,134.846,1563.91,-111925)">
            <path d="M-9.481,835.756L-9.682,835.756" style="fill:none;stroke:black;stroke-width:0.01px;"/>
        </g>
        <g transform="matrix(134.846,0,0,134.846,1563.91,-111925)">
            <path d="M-9.346,835.756L-9.144,835.756" style="fill:none;stroke:black;stroke-width:0.01px;"/>
        </g>
        <g transform="matrix(134.846,0,0,134.846,1563.91,-111925)">
            <path d="M-9.625,835.684L-9.202,835.684" style="fill:none;stroke:black;stroke-width:0.01px;"/>
        </g>
        <g transform="matrix(134.846,0,0,134.846,1563.91,-111925)">
            <path d="M-10.116,835.829L-9.733,835.829" style="fill:none;stroke:black;stroke-width:0.01px;"/>
        </g>
        <g transform="matrix(134.846,0,0,134.846,1563.91,-111925)">
            <path d="M-10.019,835.756L-10.22,835.756" style="fill:none;stroke:black;stroke-width:0.01px;"/>
        </g>
        <g transform="matrix(134.846,0,0,134.846,1563.91,-111925)">
            <path d="M-9.884,835.756L-9.682,835.756" style="fill:none;stroke:black;stroke-width:0.01px;"/>
        </g>
        <g transform="matrix(134.846,0,0,134.846,1563.91,-111925)">
            <path d="M-10.19,835.684L-9.766,835.684" style="fill:none;stroke:black;stroke-width:0.01px;"/>
        </g>
        <g transform="matrix(134.846,0,0,134.846,1563.91,-111925)">
            <path d="M-10.628,835.829L-10.244,835.829" style="fill:none;stroke:black;stroke-width:0.01px;"/>
        </g>
        <g transform="matrix(134.846,0,0,134.846,1563.91,-111925)">
            <path d="M-10.557,835.756L-10.758,835.756" style="fill:none;stroke:black;stroke-width:0.01px;"/>
        </g>
        <g transform="matrix(134.846,0,0,134.846,1563.91,-111925)">
            <path d="M-10.422,835.756L-10.22,835.756" style="fill:none;stroke:black;stroke-width:0.01px;"/>
        </g>
        <g transform="matrix(134.846,0,0,134.846,1563.91,-111925)">
            <path d="M-10.755,835.684L-10.331,835.684" style="fill:none;stroke:black;stroke-width:0.01px;"/>
        </g>
        <g transform="matrix(134.846,0,0,134.846,1563.91,-111925)">
            <path d="M-8.496,835.684L-8.072,835.684" style="fill:none;stroke:black;stroke-width:0.01px;"/>
        </g>
        <g transform="matrix(134.846,0,0,134.846,1563.91,-111925)">
            <path d="M-8.309,835.606L-8.53,835.606" style="fill:none;stroke:black;stroke-width:0.01px;"/>
        </g>
        <g transform="matrix(134.846,0,0,134.846,1563.91,-111925)">
            <path d="M-8.161,835.606L-7.941,835.606" style="fill:none;stroke:black;stroke-width:0.01px;"/>
        </g>
        <g transform="matrix(134.846,0,0,134.846,1563.91,-111925)">
            <path d="M-8.416,835.529L-7.956,835.529" style="fill:none;stroke:black;stroke-width:0.01px;"/>
        </g>
        <g transform="matrix(134.846,0,0,134.846,1563.91,-111925)">
            <path d="M-9.06,835.684L-8.637,835.684" style="fill:none;stroke:black;stroke-width:0.01px;"/>
        </g>
        <g transform="matrix(134.846,0,0,134.846,1563.91,-111925)">
            <path d="M-8.898,835.606L-9.119,835.606" style="fill:none;stroke:black;stroke-width:0.01px;"/>
        </g>
        <g transform="matrix(134.846,0,0,134.846,1563.91,-111925)">
            <path d="M-8.751,835.606L-8.53,835.606" style="fill:none;stroke:black;stroke-width:0.01px;"/>
        </g>
        <g transform="matrix(134.846,0,0,134.846,1563.91,-111925)">
            <path d="M-9.03,835.529L-8.57,835.529" style="fill:none;stroke:black;stroke-width:0.01px;"/>
        </g>
        <g transform="matrix(134.846,0,0,134.846,1563.91,-111925)">
            <path d="M-9.625,835.684L-9.202,835.684" style="fill:none;stroke:black;stroke-width:0.01px;"/>
        </g>
        <g transform="matrix(134.846,0,0,134.846,1563.91,-111925)">
            <path d="M-9.487,835.606L-9.708,835.606" style="fill:none;stroke:black;stroke-width:0.01px;"/>
        </g>
        <g transform="matrix(134.846,0,0,134.846,1563.91,-111925)">
            <path d="M-9.34,835.606L-9.119,835.606" style="fill:none;stroke:black;stroke-width:0.01px;"/>
        </g>
        <g transform="matrix(134.846,0,0,134.846,1563.91,-111925)">
            <path d="M-9.643,835.529L-9.183,835.529" style="fill:none;stroke:black;stroke-width:0.01px;"/>
        </g>
        <g transform="matrix(134.846,0,0,134.846,1563.91,-111925)">
            <path d="M-10.19,835.684L-9.766,835.684" style="fill:none;stroke:black;stroke-width:0.01px;"/>
        </g>
        <g transform="matrix(134.846,0,0,134.846,1563.91,-111925)">
            <path d="M-10.076,835.606L-10.297,835.606" style="fill:none;stroke:black;stroke-width:0.01px;"/>
        </g>
        <g transform="matrix(134.846,0,0,134.846,1563.91,-111925)">
            <path d="M-9.929,835.606L-9.708,835.606" style="fill:none;stroke:black;stroke-width:0.01px;"/>
        </g>
        <g transform="matrix(134.846,0,0,134.846,1563.91,-111925)">
            <path d="M-10.257,835.529L-9.797,835.529" style="fill:none;stroke:black;stroke-width:0.01px;"/>
        </g>
        <g transform="matrix(134.846,0,0,134.846,1563.91,-111925)">
            <path d="M-10.755,835.684L-10.331,835.684" style="fill:none;stroke:black;stroke-width:0.01px;"/>
        </g>
        <g transform="matrix(134.846,0,0,134.846,1563.91,-111925)">
            <path d="M-10.665,835.606L-10.886,835.606" style="fill:none;stroke:black;stroke-width:0.01px;"/>
        </g>
        <g transform="matrix(134.846,0,0,134.846,1563.91,-111925)">
            <path d="M-10.518,835.606L-10.297,835.606" style="fill:none;stroke:black;stroke-width:0.01px;"/>
        </g>
        <g transform="matrix(134.846,0,0,134.846,1563.91,-111925)">
            <path d="M-10.87,835.529L-10.41,835.529" style="fill:none;stroke:black;stroke-width:0.01px;"/>
        </g>
        <g transform="matrix(134.846,0,0,134.846,1563.91,-111925)">
            <path d="M-8.416,835.529L-7.956,835.529" style="fill:none;stroke:black;stroke-width:0.01px;"/>
        </g>
        <g transform="matrix(134.846,0,0,134.846,1563.91,-111925)">
            <path d="M-8.222,835.447L-8.461,835.447" style="fill:none;stroke:black;stroke-width:0.01px;"/>
        </g>
        <g transform="matrix(134.846,0,0,134.846,1563.91,-111925)">
            <path d="M-8.064,835.447L-7.825,835.447" style="fill:none;stroke:black;stroke-width:0.01px;"/>
        </g>
        <g transform="matrix(134.846,0,0,134.846,1563.91,-111925)">
            <path d="M-8.346,835.364L-7.853,835.364" style="fill:none;stroke:black;stroke-width:0.01px;"/>
        </g>
        <g transform="matrix(134.846,0,0,134.846,1563.91,-111925)">
            <path d="M-9.03,835.529L-8.57,835.529" style="fill:none;stroke:black;stroke-width:0.01px;"/>
        </g>
        <g transform="matrix(134.846,0,0,134.846,1563.91,-111925)">
            <path d="M-8.858,835.447L-9.096,835.447" style="fill:none;stroke:black;stroke-width:0.01px;"/>
        </g>
        <g transform="matrix(134.846,0,0,134.846,1563.91,-111925)">
            <path d="M-8.699,835.447L-8.461,835.447" style="fill:none;stroke:black;stroke-width:0.01px;"/>
        </g>
        <g transform="matrix(134.846,0,0,134.846,1563.91,-111925)">
            <path d="M-9.003,835.364L-8.51,835.364" style="fill:none;stroke:black;stroke-width:0.01px;"/>
        </g>
        <g transform="matrix(134.846,0,0,134.846,1563.91,-111925)">
            <path d="M-9.643,835.529L-9.183,835.529" style="fill:none;stroke:black;stroke-width:0.01px;"/>
        </g>
        <g transform="matrix(134.846,0,0,134.846,1563.91,-111925)">
            <path d="M-9.493,835.447L-9.731,835.447" style="fill:none;stroke:black;stroke-width:0.01px;"/>
        </g>
        <g transform="matrix(134.846,0,0,134.846,1563.91,-111925)">
            <path d="M-9.334,835.447L-9.096,835.447" style="fill:none;stroke:black;stroke-width:0.01px;"/>
        </g>
        <g transform="matrix(134.846,0,0,134.846,1563.91,-111925)">
            <path d="M-9.66,835.364L-9.167,835.364" style="fill:none;stroke:black;stroke-width:0.01px;"/>
        </g>
        <g transform="matrix(134.846,0,0,134.846,1563.91,-111925)">
            <path d="M-10.257,835.529L-9.797,835.529" style="fill:none;stroke:black;stroke-width:0.01px;"/>
        </g>
        <g transform="matrix(134.846,0,0,134.846,1563.91,-111925)">
            <path d="M-10.128,835.447L-10.366,835.447" style="fill:none;stroke:black;stroke-width:0.01px;"/>
        </g>
        <g transform="matrix(134.846,0,0,134.846,1563.91,-111925)">
            <path d="M-9.969,835.447L-9.731,835.447" style="fill:none;stroke:black;stroke-width:0.01px;"/>
        </g>
        <g transform="matrix(134.846,0,0,134.846,1563.91,-111925)">
            <path d="M-10.316,835.364L-9.824,835.364" style="fill:none;stroke:black;stroke-width:0.01px;"/>
        </g>
        <g transform="matrix(134.846,0,0,134.846,1563.91,-111925)">
            <path d="M-10.87,835.529L-10.41,835.529" style="fill:none;stroke:black;stroke-width:0.01px;"/>
        </g>
        <g transform="matrix(134.846,0,0,134.846,1563.91,-111925)">
            <path d="M-10.763,835.447L-11.001,835.447" style="fill:none;stroke:black;stroke-width:0.01px;"/>
        </g>
        <g transform="matrix(134.846,0,0,134.846,1563.91,-111925)">
            <path d="M-10.604,835.447L-10.366,835.447" style="fill:none;stroke:black;stroke-width:0.01px;"/>
        </g>
        <g transform="matrix(134.846,0,0,134.846,1563.91,-111925)">
            <path d="M-10.973,835.364L-10.481,835.364" style="fill:none;stroke:black;stroke-width:0.01px;"/>
        </g>
        <g transform="matrix(134.846,0,0,134.846,1563.91,-111925)">
            <path d="M-8.346,835.364L-7.853,835.364" style="fill:none;stroke:black;stroke-width:0.01px;"/>
        </g>
        <g transform="matrix(134.846,0,0,134.846,1563.91,-111925)">
            <path d="M-8.147,835.277L-8.4,835.277" style="fill:none;stroke:black;stroke-width:0.01px;"/>
        </g>
        <g transform="matrix(134.846,0,0,134.846,1563.91,-111925)">
            <path d="M-7.978,835.277L-7.725,835.277" style="fill:none;stroke:black;stroke-width:0.01px;"/>
        </g>
        <g transform="matrix(134.846,0,0,134.846,1563.91,-111925)">
            <path d="M-8.285,835.191L-7.765,835.191" style="fill:none;stroke:black;stroke-width:0.01px;"/>
        </g>
        <g transform="matrix(134.846,0,0,134.846,1563.91,-111925)">
            <path d="M-9.003,835.364L-8.51,835.364" style="fill:none;stroke:black;stroke-width:0.01px;"/>
        </g>
        <g transform="matrix(134.846,0,0,134.846,1563.91,-111925)">
            <path d="M-8.822,835.277L-9.076,835.277" style="fill:none;stroke:black;stroke-width:0.01px;"/>
        </g>
        <g transform="matrix(134.846,0,0,134.846,1563.91,-111925)">
            <path d="M-8.653,835.277L-8.4,835.277" style="fill:none;stroke:black;stroke-width:0.01px;"/>
        </g>
        <g transform="matrix(134.846,0,0,134.846,1563.91,-111925)">
            <path d="M-8.979,835.191L-8.459,835.191" style="fill:none;stroke:black;stroke-width:0.01px;"/>
        </g>
        <g transform="matrix(134.846,0,0,134.846,1563.91,-111925)">
            <path d="M-9.66,835.364L-9.167,835.364" style="fill:none;stroke:black;stroke-width:0.01px;"/>
        </g>
        <g transform="matrix(134.846,0,0,134.846,1563.91,-111925)">
            <path d="M-9.498,835.277L-9.751,835.277" style="fill:none;stroke:black;stroke-width:0.01px;"/>
        </g>
        <g transform="matrix(134.846,0,0,134.846,1563.91,-111925)">
            <path d="M-9.329,835.277L-9.076,835.277" style="fill:none;stroke:black;stroke-width:0.01px;"/>
        </g>
        <g transform="matrix(134.846,0,0,134.846,1563.91,-111925)">
            <path d="M-9.674,835.191L-9.153,835.191" style="fill:none;stroke:black;stroke-width:0.01px;"/>
        </g>
        <g transform="matrix(134.846,0,0,134.846,1563.91,-111925)">
            <path d="M-10.316,835.364L-9.824,835.364" style="fill:none;stroke:black;stroke-width:0.01px;"/>
        </g>
        <g transform="matrix(134.846,0,0,134.846,1563.91,-111925)">
            <path d="M-10.173,835.277L-10.427,835.277" style="fill:none;stroke:black;stroke-width:0.01px;"/>
        </g>
        <g transform="matrix(134.846,0,0,134.846,1563.91,-111925)">
            <path d="M-10.004,835.277L-9.751,835.277" style="fill:none;stroke:black;stroke-width:0.01px;"/>
        </g>
        <g transform="matrix(134.846,0,0,134.846,1563.91,-111925)">
            <path d="M-10.368,835.191L-9.847,835.191" style="fill:none;stroke:black;stroke-width:0.01px;"/>
        </g>
        <g transform="matrix(134.846,0,0,134.846,1563.91,-111925)">
            <path d="M-10.973,835.364L-10.481,835.364" style="fill:none;stroke:black;stroke-width:0.01px;"/>
        </g>
        <g transform="matrix(134.846,0,0,134.846,1563.91,-111925)">
            <path d="M-10.849,835.277L-11.102,835.277" style="fill:none;stroke:black;stroke-width:0.01px;"/>
        </g>
        <g transform="matrix(134.846,0,0,134.846,1563.91,-111925)">
            <path d="M-10.68,835.277L-10.427,835.277" style="fill:none;stroke:black;stroke-width:0.01px;"/>
        </g>
        <g transform="matrix(134.846,0,0,134.846,1563.91,-111925)">
            <path d="M-11.062,835.191L-10.541,835.191" style="fill:none;stroke:black;stroke-width:0.01px;"/>
        </g>
        <g transform="matrix(134.846,0,0,134.846,1563.91,-111925)">
            <path d="M-8.285,835.191L-7.765,835.191" style="fill:none;stroke:black;stroke-width:0.01px;"/>
        </g>
        <g transform="matrix(134.846,0,0,134.846,1563.91,-111925)">
            <path d="M-8.083,835.1L-8.349,835.1" style="fill:none;stroke:black;stroke-width:0.01px;"/>
        </g>
        <g transform="matrix(134.846,0,0,134.846,1563.91,-111925)">
            <path d="M-7.905,835.1L-7.639,835.1" style="fill:none;stroke:black;stroke-width:0.01px;"/>
        </g>
        <g transform="matrix(134.846,0,0,134.846,1563.91,-111925)">
            <path d="M-8.235,835.01L-7.691,835.01" style="fill:none;stroke:black;stroke-width:0.01px;"/>
        </g>
        <g transform="matrix(134.846,0,0,134.846,1563.91,-111925)">
            <path d="M-8.979,835.191L-8.459,835.191" style="fill:none;stroke:black;stroke-width:0.01px;"/>
        </g>
        <g transform="matrix(134.846,0,0,134.846,1563.91,-111925)">
            <path d="M-8.792,835.1L-9.058,835.1" style="fill:none;stroke:black;stroke-width:0.01px;"/>
        </g>
        <g transform="matrix(134.846,0,0,134.846,1563.91,-111925)">
            <path d="M-8.615,835.1L-8.349,835.1" style="fill:none;stroke:black;stroke-width:0.01px;"/>
        </g>
        <g transform="matrix(134.846,0,0,134.846,1563.91,-111925)">
            <path d="M-8.96,835.01L-8.416,835.01" style="fill:none;stroke:black;stroke-width:0.01px;"/>
        </g>
        <g transform="matrix(134.846,0,0,134.846,1563.91,-111925)">
            <path d="M-9.674,835.191L-9.153,835.191" style="fill:none;stroke:black;stroke-width:0.01px;"/>
        </g>
        <g transform="matrix(134.846,0,0,134.846,1563.91,-111925)">
            <path d="M-9.502,835.1L-9.768,835.1" style="fill:none;stroke:black;stroke-width:0.01px;"/>
        </g>
        <g transform="matrix(134.846,0,0,134.846,1563.91,-111925)">
            <path d="M-9.325,835.1L-9.058,835.1" style="fill:none;stroke:black;stroke-width:0.01px;"/>
        </g>
        <g transform="matrix(134.846,0,0,134.846,1563.91,-111925)">
            <path d="M-9.685,835.01L-9.141,835.01" style="fill:none;stroke:black;stroke-width:0.01px;"/>
        </g>
        <g transform="matrix(134.846,0,0,134.846,1563.91,-111925)">
            <path d="M-10.368,835.191L-9.847,835.191" style="fill:none;stroke:black;stroke-width:0.01px;"/>
        </g>
        <g transform="matrix(134.846,0,0,134.846,1563.91,-111925)">
            <path d="M-10.212,835.1L-10.478,835.1" style="fill:none;stroke:black;stroke-width:0.01px;"/>
        </g>
        <g transform="matrix(134.846,0,0,134.846,1563.91,-111925)">
            <path d="M-10.034,835.1L-9.768,835.1" style="fill:none;stroke:black;stroke-width:0.01px;"/>
        </g>
        <g transform="matrix(134.846,0,0,134.846,1563.91,-111925)">
            <path d="M-10.411,835.01L-9.867,835.01" style="fill:none;stroke:black;stroke-width:0.01px;"/>
        </g>
        <g transform="matrix(134.846,0,0,134.846,1563.91,-111925)">
            <path d="M-11.062,835.191L-10.541,835.191" style="fill:none;stroke:black;stroke-width:0.01px;"/>
        </g>
        <g transform="matrix(134.846,0,0,134.846,1563.91,-111925)">
            <path d="M-10.921,835.1L-11.188,835.1" style="fill:none;stroke:black;stroke-width:0.01px;"/>
        </g>
        <g transform="matrix(134.846,0,0,134.846,1563.91,-111925)">
            <path d="M-10.744,835.1L-10.478,835.1" style="fill:none;stroke:black;stroke-width:0.01px;"/>
        </g>
        <g transform="matrix(134.846,0,0,134.846,1563.91,-111925)">
            <path d="M-11.136,835.01L-10.592,835.01" style="fill:none;stroke:black;stroke-width:0.01px;"/>
        </g>
        <g transform="matrix(134.846,0,0,134.846,1563.91,-111925)">
            <path d="M-8.235,835.01L-7.691,835.01" style="fill:none;stroke:black;stroke-width:0.01px;"/>
        </g>
        <g transform="matrix(134.846,0,0,134.846,1563.91,-111925)">
            <path d="M-8.03,834.916L-8.307,834.916" style="fill:none;stroke:black;stroke-width:0.01px;"/>
        </g>
        <g transform="matrix(134.846,0,0,134.846,1563.91,-111925)">
            <path d="M-7.846,834.916L-7.569,834.916" style="fill:none;stroke:black;stroke-width:0.01px;"/>
        </g>
        <g transform="matrix(134.846,0,0,134.846,1563.91,-111925)">
            <path d="M-8.194,834.823L-7.632,834.823" style="fill:none;stroke:black;stroke-width:0.01px;"/>
        </g>
        <g transform="matrix(134.846,0,0,134.846,1563.91,-111925)">
            <path d="M-8.96,835.01L-8.416,835.01" style="fill:none;stroke:black;stroke-width:0.01px;"/>
        </g>
        <g transform="matrix(134.846,0,0,134.846,1563.91,-111925)">
            <path d="M-8.768,834.916L-9.044,834.916" style="fill:none;stroke:black;stroke-width:0.01px;"/>
        </g>
        <g transform="matrix(134.846,0,0,134.846,1563.91,-111925)">
            <path d="M-8.583,834.916L-8.307,834.916" style="fill:none;stroke:black;stroke-width:0.01px;"/>
        </g>
        <g transform="matrix(134.846,0,0,134.846,1563.91,-111925)">
            <path d="M-8.944,834.823L-8.382,834.823" style="fill:none;stroke:black;stroke-width:0.01px;"/>
        </g>
        <g transform="matrix(134.846,0,0,134.846,1563.91,-111925)">
            <path d="M-9.685,835.01L-9.141,835.01" style="fill:none;stroke:black;stroke-width:0.01px;"/>
        </g>
        <g transform="matrix(134.846,0,0,134.846,1563.91,-111925)">
            <path d="M-9.506,834.916L-9.782,834.916" style="fill:none;stroke:black;stroke-width:0.01px;"/>
        </g>
        <g transform="matrix(134.846,0,0,134.846,1563.91,-111925)">
            <path d="M-9.321,834.916L-9.044,834.916" style="fill:none;stroke:black;stroke-width:0.01px;"/>
        </g>
        <g transform="matrix(134.846,0,0,134.846,1563.91,-111925)">
            <path d="M-9.695,834.823L-9.132,834.823" style="fill:none;stroke:black;stroke-width:0.01px;"/>
        </g>
        <g transform="matrix(134.846,0,0,134.846,1563.91,-111925)">
            <path d="M-10.411,835.01L-9.867,835.01" style="fill:none;stroke:black;stroke-width:0.01px;"/>
        </g>
        <g transform="matrix(134.846,0,0,134.846,1563.91,-111925)">
            <path d="M-10.243,834.916L-10.52,834.916" style="fill:none;stroke:black;stroke-width:0.01px;"/>
        </g>
        <g transform="matrix(134.846,0,0,134.846,1563.91,-111925)">
            <path d="M-10.059,834.916L-9.782,834.916" style="fill:none;stroke:black;stroke-width:0.01px;"/>
        </g>
        <g transform="matrix(134.846,0,0,134.846,1563.91,-111925)">
            <path d="M-10.445,834.823L-9.882,834.823" style="fill:none;stroke:black;stroke-width:0.01px;"/>
        </g>
        <g transform="matrix(134.846,0,0,134.846,1563.91,-111925)">
            <path d="M-11.136,835.01L-10.592,835.01" style="fill:none;stroke:black;stroke-width:0.01px;"/>
        </g>
        <g transform="matrix(134.846,0,0,134.846,1563.91,-111925)">
            <path d="M-10.981,834.916L-11.258,834.916" style="fill:none;stroke:black;stroke-width:0.01px;"/>
        </g>
        <g transform="matrix(134.846,0,0,134.846,1563.91,-111925)">
            <path d="M-10.797,834.916L-10.52,834.916" style="fill:none;stroke:black;stroke-width:0.01px;"/>
        </g>
        <g transform="matrix(134.846,0,0,134.846,1563.91,-111925)">
            <path d="M-11.195,834.823L-10.632,834.823" style="fill:none;stroke:black;stroke-width:0.01px;"/>
        </g>
        <g transform="matrix(134.846,0,0,134.846,1563.91,-111925)">
            <path d="M-8.194,834.823L-7.632,834.823" style="fill:none;stroke:black;stroke-width:0.01px;"/>
        </g>
        <g transform="matrix(134.846,0,0,134.846,1563.91,-111925)">
            <path d="M-7.988,834.727L-8.273,834.727" style="fill:none;stroke:black;stroke-width:0.01px;"/>
        </g>
        <g transform="matrix(134.846,0,0,134.846,1563.91,-111925)">
            <path d="M-7.798,834.727L-7.513,834.727" style="fill:none;stroke:black;stroke-width:0.01px;"/>
        </g>
        <g transform="matrix(134.846,0,0,134.846,1563.91,-111925)">
            <path d="M-8.162,834.632L-7.585,834.632" style="fill:none;stroke:black;stroke-width:0.01px;"/>
        </g>
        <g transform="matrix(134.846,0,0,134.846,1563.91,-111925)">
            <path d="M-8.944,834.823L-8.382,834.823" style="fill:none;stroke:black;stroke-width:0.01px;"/>
        </g>
        <g transform="matrix(134.846,0,0,134.846,1563.91,-111925)">
            <path d="M-8.748,834.727L-9.033,834.727" style="fill:none;stroke:black;stroke-width:0.01px;"/>
        </g>
        <g transform="matrix(134.846,0,0,134.846,1563.91,-111925)">
            <path d="M-8.558,834.727L-8.273,834.727" style="fill:none;stroke:black;stroke-width:0.01px;"/>
        </g>
        <g transform="matrix(134.846,0,0,134.846,1563.91,-111925)">
            <path d="M-8.932,834.632L-8.355,834.632" style="fill:none;stroke:black;stroke-width:0.01px;"/>
        </g>
        <g transform="matrix(134.846,0,0,134.846,1563.91,-111925)">
            <path d="M-9.695,834.823L-9.132,834.823" style="fill:none;stroke:black;stroke-width:0.01px;"/>
        </g>
        <g transform="matrix(134.846,0,0,134.846,1563.91,-111925)">
            <path d="M-9.508,834.727L-9.793,834.727" style="fill:none;stroke:black;stroke-width:0.01px;"/>
        </g>
        <g transform="matrix(134.846,0,0,134.846,1563.91,-111925)">
            <path d="M-9.318,834.727L-9.033,834.727" style="fill:none;stroke:black;stroke-width:0.01px;"/>
        </g>
        <g transform="matrix(134.846,0,0,134.846,1563.91,-111925)">
            <path d="M-9.702,834.632L-9.125,834.632" style="fill:none;stroke:black;stroke-width:0.01px;"/>
        </g>
        <g transform="matrix(134.846,0,0,134.846,1563.91,-111925)">
            <path d="M-10.445,834.823L-9.882,834.823" style="fill:none;stroke:black;stroke-width:0.01px;"/>
        </g>
        <g transform="matrix(134.846,0,0,134.846,1563.91,-111925)">
            <path d="M-10.268,834.727L-10.553,834.727" style="fill:none;stroke:black;stroke-width:0.01px;"/>
        </g>
        <g transform="matrix(134.846,0,0,134.846,1563.91,-111925)">
            <path d="M-10.078,834.727L-9.793,834.727" style="fill:none;stroke:black;stroke-width:0.01px;"/>
        </g>
        <g transform="matrix(134.846,0,0,134.846,1563.91,-111925)">
            <path d="M-10.472,834.632L-9.894,834.632" style="fill:none;stroke:black;stroke-width:0.01px;"/>
        </g>
        <g transform="matrix(134.846,0,0,134.846,1563.91,-111925)">
            <path d="M-11.195,834.823L-10.632,834.823" style="fill:none;stroke:black;stroke-width:0.01px;"/>
        </g>
        <g transform="matrix(134.846,0,0,134.846,1563.91,-111925)">
            <path d="M-11.028,834.727L-11.313,834.727" style="fill:none;stroke:black;stroke-width:0.01px;"/>
        </g>
        <g transform="matrix(134.846,0,0,134.846,1563.91,-111925)">
            <path d="M-10.838,834.727L-10.553,834.727" style="fill:none;stroke:black;stroke-width:0.01px;"/>
        </g>
        <g transform="matrix(134.846,0,0,134.846,1563.91,-111925)">
            <path d="M-11.242,834.632L-10.664,834.632" style="fill:none;stroke:black;stroke-width:0.01px;"/>
        </g>
        <g transform="matrix(134.846,0,0,134.846,1563.91,-111925)">
            <path d="M-8.162,834.632L-7.585,834.632" style="fill:none;stroke:black;stroke-width:0.01px;"/>
        </g>
        <g transform="matrix(134.846,0,0,134.846,1563.91,-111925)">
            <path d="M-7.956,834.535L-8.247,834.535" style="fill:none;stroke:black;stroke-width:0.01px;"/>
        </g>
        <g transform="matrix(134.846,0,0,134.846,1563.91,-111925)">
            <path d="M-7.761,834.535L-7.47,834.535" style="fill:none;stroke:black;stroke-width:0.01px;"/>
        </g>
        <g transform="matrix(134.846,0,0,134.846,1563.91,-111925)">
            <path d="M-8.138,834.438L-7.549,834.438" style="fill:none;stroke:black;stroke-width:0.01px;"/>
        </g>
        <g transform="matrix(134.846,0,0,134.846,1563.91,-111925)">
            <path d="M-8.932,834.632L-8.355,834.632" style="fill:none;stroke:black;stroke-width:0.01px;"/>
        </g>
        <g transform="matrix(134.846,0,0,134.846,1563.91,-111925)">
            <path d="M-8.733,834.535L-9.025,834.535" style="fill:none;stroke:black;stroke-width:0.01px;"/>
        </g>
        <g transform="matrix(134.846,0,0,134.846,1563.91,-111925)">
            <path d="M-8.539,834.535L-8.247,834.535" style="fill:none;stroke:black;stroke-width:0.01px;"/>
        </g>
        <g transform="matrix(134.846,0,0,134.846,1563.91,-111925)">
            <path d="M-8.923,834.438L-8.334,834.438" style="fill:none;stroke:black;stroke-width:0.01px;"/>
        </g>
        <g transform="matrix(134.846,0,0,134.846,1563.91,-111925)">
            <path d="M-9.702,834.632L-9.125,834.632" style="fill:none;stroke:black;stroke-width:0.01px;"/>
        </g>
        <g transform="matrix(134.846,0,0,134.846,1563.91,-111925)">
            <path d="M-9.51,834.535L-9.802,834.535" style="fill:none;stroke:black;stroke-width:0.01px;"/>
        </g>
        <g transform="matrix(134.846,0,0,134.846,1563.91,-111925)">
            <path d="M-9.316,834.535L-9.025,834.535" style="fill:none;stroke:black;stroke-width:0.01px;"/>
        </g>
        <g transform="matrix(134.846,0,0,134.846,1563.91,-111925)">
            <path d="M-9.708,834.438L-9.119,834.438" style="fill:none;stroke:black;stroke-width:0.01px;"/>
        </g>
        <g transform="matrix(134.846,0,0,134.846,1563.91,-111925)">
            <path d="M-10.472,834.632L-9.894,834.632" style="fill:none;stroke:black;stroke-width:0.01px;"/>
        </g>
        <g transform="matrix(134.846,0,0,134.846,1563.91,-111925)">
            <path d="M-10.288,834.535L-10.579,834.535" style="fill:none;stroke:black;stroke-width:0.01px;"/>
        </g>
        <g transform="matrix(134.846,0,0,134.846,1563.91,-111925)">
            <path d="M-10.094,834.535L-9.802,834.535" style="fill:none;stroke:black;stroke-width:0.01px;"/>
        </g>
        <g transform="matrix(134.846,0,0,134.846,1563.91,-111925)">
            <path d="M-10.493,834.438L-9.904,834.438" style="fill:none;stroke:black;stroke-width:0.01px;"/>
        </g>
        <g transform="matrix(134.846,0,0,134.846,1563.91,-111925)">
            <path d="M-11.242,834.632L-10.664,834.632" style="fill:none;stroke:black;stroke-width:0.01px;"/>
        </g>
        <g transform="matrix(134.846,0,0,134.846,1563.91,-111925)">
            <path d="M-11.065,834.535L-11.357,834.535" style="fill:none;stroke:black;stroke-width:0.01px;"/>
        </g>
        <g transform="matrix(134.846,0,0,134.846,1563.91,-111925)">
            <path d="M-10.871,834.535L-10.579,834.535" style="fill:none;stroke:black;stroke-width:0.01px;"/>
        </g>
        <g transform="matrix(134.846,0,0,134.846,1563.91,-111925)">
            <path d="M-11.278,834.438L-10.689,834.438" style="fill:none;stroke:black;stroke-width:0.01px;"/>
        </g>
        <g transform="matrix(134.846,0,0,134.846,1563.91,-111925)">
            <path d="M-8.138,834.438L-7.549,834.438" style="fill:none;stroke:black;stroke-width:0.01px;"/>
        </g>
        <g transform="matrix(134.846,0,0,134.846,1563.91,-111925)">
            <path d="M-7.93,834.341L-8.227,834.341" style="fill:none;stroke:black;stroke-width:0.01px;"/>
        </g>
        <g transform="matrix(134.846,0,0,134.846,1563.91,-111925)">
            <path d="M-7.732,834.341L-7.435,834.341" style="fill:none;stroke:black;stroke-width:0.01px;"/>
        </g>
        <g transform="matrix(134.846,0,0,134.846,1563.91,-111925)">
            <path d="M-8.118,834.243L-7.52,834.243" style="fill:none;stroke:black;stroke-width:0.01px;"/>
        </g>
        <g transform="matrix(134.846,0,0,134.846,1563.91,-111925)">
            <path d="M-8.923,834.438L-8.334,834.438" style="fill:none;stroke:black;stroke-width:0.01px;"/>
        </g>
        <g transform="matrix(134.846,0,0,134.846,1563.91,-111925)">
            <path d="M-8.721,834.341L-9.018,834.341" style="fill:none;stroke:black;stroke-width:0.01px;"/>
        </g>
        <g transform="matrix(134.846,0,0,134.846,1563.91,-111925)">
            <path d="M-8.523,834.341L-8.227,834.341" style="fill:none;stroke:black;stroke-width:0.01px;"/>
        </g>
        <g transform="matrix(134.846,0,0,134.846,1563.91,-111925)">
            <path d="M-8.915,834.243L-8.317,834.243" style="fill:none;stroke:black;stroke-width:0.01px;"/>
        </g>
        <g transform="matrix(134.846,0,0,134.846,1563.91,-111925)">
            <path d="M-9.708,834.438L-9.119,834.438" style="fill:none;stroke:black;stroke-width:0.01px;"/>
        </g>
        <g transform="matrix(134.846,0,0,134.846,1563.91,-111925)">
            <path d="M-9.512,834.341L-9.809,834.341" style="fill:none;stroke:black;stroke-width:0.01px;"/>
        </g>
        <g transform="matrix(134.846,0,0,134.846,1563.91,-111925)">
            <path d="M-9.314,834.341L-9.018,834.341" style="fill:none;stroke:black;stroke-width:0.01px;"/>
        </g>
        <g transform="matrix(134.846,0,0,134.846,1563.91,-111925)">
            <path d="M-9.712,834.243L-9.114,834.243" style="fill:none;stroke:black;stroke-width:0.01px;"/>
        </g>
        <g transform="matrix(134.846,0,0,134.846,1563.91,-111925)">
            <path d="M-10.493,834.438L-9.904,834.438" style="fill:none;stroke:black;stroke-width:0.01px;"/>
        </g>
        <g transform="matrix(134.846,0,0,134.846,1563.91,-111925)">
            <path d="M-10.303,834.341L-10.6,834.341" style="fill:none;stroke:black;stroke-width:0.01px;"/>
        </g>
        <g transform="matrix(134.846,0,0,134.846,1563.91,-111925)">
            <path d="M-10.105,834.341L-9.809,834.341" style="fill:none;stroke:black;stroke-width:0.01px;"/>
        </g>
        <g transform="matrix(134.846,0,0,134.846,1563.91,-111925)">
            <path d="M-10.509,834.243L-9.912,834.243" style="fill:none;stroke:black;stroke-width:0.01px;"/>
        </g>
        <g transform="matrix(134.846,0,0,134.846,1563.91,-111925)">
            <path d="M-11.278,834.438L-10.689,834.438" style="fill:none;stroke:black;stroke-width:0.01px;"/>
        </g>
        <g transform="matrix(134.846,0,0,134.846,1563.91,-111925)">
            <path d="M-11.094,834.341L-11.391,834.341" style="fill:none;stroke:black;stroke-width:0.01px;"/>
        </g>
        <g transform="matrix(134.846,0,0,134.846,1563.91,-111925)">
            <path d="M-10.897,834.341L-10.6,834.341" style="fill:none;stroke:black;stroke-width:0.01px;"/>
        </g>
        <g transform="matrix(134.846,0,0,134.846,1563.91,-111925)">
            <path d="M-11.307,834.243L-10.709,834.243" style="fill:none;stroke:black;stroke-width:0.01px;"/>
        </g>
        <g transform="matrix(134.846,0,0,134.846,1563.91,-111925)">
            <path d="M-8.118,834.243L-7.52,834.243" style="fill:none;stroke:black;stroke-width:0.01px;"/>
        </g>
        <g transform="matrix(134.846,0,0,134.846,1563.91,-111925)">
            <path d="M-7.91,834.146L-8.21,834.146" style="fill:none;stroke:black;stroke-width:0.01px;"/>
        </g>
        <g transform="matrix(134.846,0,0,134.846,1563.91,-111925)">
            <path d="M-7.709,834.146L-7.409,834.146" style="fill:none;stroke:black;stroke-width:0.01px;"/>
        </g>
        <g transform="matrix(134.846,0,0,134.846,1563.91,-111925)">
            <path d="M-8.103,834.048L-7.498,834.048" style="fill:none;stroke:black;stroke-width:0.01px;"/>
        </g>
        <g transform="matrix(134.846,0,0,134.846,1563.91,-111925)">
            <path d="M-8.915,834.243L-8.317,834.243" style="fill:none;stroke:black;stroke-width:0.01px;"/>
        </g>
        <g transform="matrix(134.846,0,0,134.846,1563.91,-111925)">
            <path d="M-8.712,834.146L-9.012,834.146" style="fill:none;stroke:black;stroke-width:0.01px;"/>
        </g>
        <g transform="matrix(134.846,0,0,134.846,1563.91,-111925)">
            <path d="M-8.511,834.146L-8.21,834.146" style="fill:none;stroke:black;stroke-width:0.01px;"/>
        </g>
        <g transform="matrix(134.846,0,0,134.846,1563.91,-111925)">
            <path d="M-8.909,834.048L-8.304,834.048" style="fill:none;stroke:black;stroke-width:0.01px;"/>
        </g>
        <g transform="matrix(134.846,0,0,134.846,1563.91,-111925)">
            <path d="M-9.712,834.243L-9.114,834.243" style="fill:none;stroke:black;stroke-width:0.01px;"/>
        </g>
        <g transform="matrix(134.846,0,0,134.846,1563.91,-111925)">
            <path d="M-9.514,834.146L-9.814,834.146" style="fill:none;stroke:black;stroke-width:0.01px;"/>
        </g>
        <g transform="matrix(134.846,0,0,134.846,1563.91,-111925)">
            <path d="M-9.313,834.146L-9.012,834.146" style="fill:none;stroke:black;stroke-width:0.01px;"/>
        </g>
        <g transform="matrix(134.846,0,0,134.846,1563.91,-111925)">
            <path d="M-9.716,834.048L-9.111,834.048" style="fill:none;stroke:black;stroke-width:0.01px;"/>
        </g>
        <g transform="matrix(134.846,0,0,134.846,1563.91,-111925)">
            <path d="M-10.509,834.243L-9.912,834.243" style="fill:none;stroke:black;stroke-width:0.01px;"/>
        </g>
        <g transform="matrix(134.846,0,0,134.846,1563.91,-111925)">
            <path d="M-10.315,834.146L-10.616,834.146" style="fill:none;stroke:black;stroke-width:0.01px;"/>
        </g>
        <g transform="matrix(134.846,0,0,134.846,1563.91,-111925)">
            <path d="M-10.115,834.146L-9.814,834.146" style="fill:none;stroke:black;stroke-width:0.01px;"/>
        </g>
        <g transform="matrix(134.846,0,0,134.846,1563.91,-111925)">
            <path d="M-10.522,834.048L-9.917,834.048" style="fill:none;stroke:black;stroke-width:0.01px;"/>
        </g>
        <g transform="matrix(134.846,0,0,134.846,1563.91,-111925)">
            <path d="M-11.307,834.243L-10.709,834.243" style="fill:none;stroke:black;stroke-width:0.01px;"/>
        </g>
        <g transform="matrix(134.846,0,0,134.846,1563.91,-111925)">
            <path d="M-11.117,834.146L-11.418,834.146" style="fill:none;stroke:black;stroke-width:0.01px;"/>
        </g>
        <g transform="matrix(134.846,0,0,134.846,1563.91,-111925)">
            <path d="M-10.917,834.146L-10.616,834.146" style="fill:none;stroke:black;stroke-width:0.01px;"/>
        </g>
        <g transform="matrix(134.846,0,0,134.846,1563.91,-111925)">
            <path d="M-11.329,834.048L-10.724,834.048" style="fill:none;stroke:black;stroke-width:0.01px;"/>
        </g>
        <g transform="matrix(134.846,0,0,134.846,1563.91,-111925)">
            <path d="M-8.103,834.048L-7.498,834.048" style="fill:none;stroke:black;stroke-width:0.01px;"/>
        </g>
        <g transform="matrix(134.846,0,0,134.846,1563.91,-111925)">
            <path d="M-7.895,833.949L-8.198,833.949" style="fill:none;stroke:black;stroke-width:0.01px;"/>
        </g>
        <g transform="matrix(134.846,0,0,134.846,1563.91,-111925)">
            <path d="M-7.692,833.949L-7.388,833.949" style="fill:none;stroke:black;stroke-width:0.01px;"/>
        </g>
        <g transform="matrix(134.846,0,0,134.846,1563.91,-111925)">
            <path d="M-8.092,833.851L-7.481,833.851" style="fill:none;stroke:black;stroke-width:0.01px;"/>
        </g>
        <g transform="matrix(134.846,0,0,134.846,1563.91,-111925)">
            <path d="M-8.909,834.048L-8.304,834.048" style="fill:none;stroke:black;stroke-width:0.01px;"/>
        </g>
        <g transform="matrix(134.846,0,0,134.846,1563.91,-111925)">
            <path d="M-8.705,833.949L-9.008,833.949" style="fill:none;stroke:black;stroke-width:0.01px;"/>
        </g>
        <g transform="matrix(134.846,0,0,134.846,1563.91,-111925)">
            <path d="M-8.502,833.949L-8.198,833.949" style="fill:none;stroke:black;stroke-width:0.01px;"/>
        </g>
        <g transform="matrix(134.846,0,0,134.846,1563.91,-111925)">
            <path d="M-8.905,833.851L-8.295,833.851" style="fill:none;stroke:black;stroke-width:0.01px;"/>
        </g>
        <g transform="matrix(134.846,0,0,134.846,1563.91,-111925)">
            <path d="M-9.716,834.048L-9.111,834.048" style="fill:none;stroke:black;stroke-width:0.01px;"/>
        </g>
        <g transform="matrix(134.846,0,0,134.846,1563.91,-111925)">
            <path d="M-9.515,833.949L-9.818,833.949" style="fill:none;stroke:black;stroke-width:0.01px;"/>
        </g>
        <g transform="matrix(134.846,0,0,134.846,1563.91,-111925)">
            <path d="M-9.312,833.949L-9.008,833.949" style="fill:none;stroke:black;stroke-width:0.01px;"/>
        </g>
        <g transform="matrix(134.846,0,0,134.846,1563.91,-111925)">
            <path d="M-9.718,833.851L-9.108,833.851" style="fill:none;stroke:black;stroke-width:0.01px;"/>
        </g>
        <g transform="matrix(134.846,0,0,134.846,1563.91,-111925)">
            <path d="M-10.522,834.048L-9.917,834.048" style="fill:none;stroke:black;stroke-width:0.01px;"/>
        </g>
        <g transform="matrix(134.846,0,0,134.846,1563.91,-111925)">
            <path d="M-10.325,833.949L-10.628,833.949" style="fill:none;stroke:black;stroke-width:0.01px;"/>
        </g>
        <g transform="matrix(134.846,0,0,134.846,1563.91,-111925)">
            <path d="M-10.122,833.949L-9.818,833.949" style="fill:none;stroke:black;stroke-width:0.01px;"/>
        </g>
        <g transform="matrix(134.846,0,0,134.846,1563.91,-111925)">
            <path d="M-10.532,833.851L-9.922,833.851" style="fill:none;stroke:black;stroke-width:0.01px;"/>
        </g>
        <g transform="matrix(134.846,0,0,134.846,1563.91,-111925)">
            <path d="M-11.329,834.048L-10.724,834.048" style="fill:none;stroke:black;stroke-width:0.01px;"/>
        </g>
        <g transform="matrix(134.846,0,0,134.846,1563.91,-111925)">
            <path d="M-11.134,833.949L-11.438,833.949" style="fill:none;stroke:black;stroke-width:0.01px;"/>
        </g>
        <g transform="matrix(134.846,0,0,134.846,1563.91,-111925)">
            <path d="M-10.932,833.949L-10.628,833.949" style="fill:none;stroke:black;stroke-width:0.01px;"/>
        </g>
        <g transform="matrix(134.846,0,0,134.846,1563.91,-111925)">
            <path d="M-11.345,833.851L-10.735,833.851" style="fill:none;stroke:black;stroke-width:0.01px;"/>
        </g>
        <g transform="matrix(134.846,0,0,134.846,1563.91,-111925)">
            <path d="M-8.092,833.851L-7.481,833.851" style="fill:none;stroke:black;stroke-width:0.01px;"/>
        </g>
        <g transform="matrix(134.846,0,0,134.846,1563.91,-111925)">
            <path d="M-7.884,833.753L-8.19,833.753" style="fill:none;stroke:black;stroke-width:0.01px;"/>
        </g>
        <g transform="matrix(134.846,0,0,134.846,1563.91,-111925)">
            <path d="M-7.68,833.753L-7.374,833.753" style="fill:none;stroke:black;stroke-width:0.01px;"/>
        </g>
        <g transform="matrix(134.846,0,0,134.846,1563.91,-111925)">
            <path d="M-8.084,833.654L-7.47,833.654" style="fill:none;stroke:black;stroke-width:0.01px;"/>
        </g>
        <g transform="matrix(134.846,0,0,134.846,1563.91,-111925)">
            <path d="M-8.905,833.851L-8.295,833.851" style="fill:none;stroke:black;stroke-width:0.01px;"/>
        </g>
        <g transform="matrix(134.846,0,0,134.846,1563.91,-111925)">
            <path d="M-8.699,833.753L-9.005,833.753" style="fill:none;stroke:black;stroke-width:0.01px;"/>
        </g>
        <g transform="matrix(134.846,0,0,134.846,1563.91,-111925)">
            <path d="M-8.496,833.753L-8.19,833.753" style="fill:none;stroke:black;stroke-width:0.01px;"/>
        </g>
        <g transform="matrix(134.846,0,0,134.846,1563.91,-111925)">
            <path d="M-8.902,833.654L-8.288,833.654" style="fill:none;stroke:black;stroke-width:0.01px;"/>
        </g>
        <g transform="matrix(134.846,0,0,134.846,1563.91,-111925)">
            <path d="M-9.718,833.851L-9.108,833.851" style="fill:none;stroke:black;stroke-width:0.01px;"/>
        </g>
        <g transform="matrix(134.846,0,0,134.846,1563.91,-111925)">
            <path d="M-9.515,833.753L-9.821,833.753" style="fill:none;stroke:black;stroke-width:0.01px;"/>
        </g>
        <g transform="matrix(134.846,0,0,134.846,1563.91,-111925)">
            <path d="M-9.311,833.753L-9.005,833.753" style="fill:none;stroke:black;stroke-width:0.01px;"/>
        </g>
        <g transform="matrix(134.846,0,0,134.846,1563.91,-111925)">
            <path d="M-9.72,833.654L-9.106,833.654" style="fill:none;stroke:black;stroke-width:0.01px;"/>
        </g>
        <g transform="matrix(134.846,0,0,134.846,1563.91,-111925)">
            <path d="M-10.532,833.851L-9.922,833.851" style="fill:none;stroke:black;stroke-width:0.01px;"/>
        </g>
        <g transform="matrix(134.846,0,0,134.846,1563.91,-111925)">
            <path d="M-10.331,833.753L-10.637,833.753" style="fill:none;stroke:black;stroke-width:0.01px;"/>
        </g>
        <g transform="matrix(134.846,0,0,134.846,1563.91,-111925)">
            <path d="M-10.127,833.753L-9.821,833.753" style="fill:none;stroke:black;stroke-width:0.01px;"/>
        </g>
        <g transform="matrix(134.846,0,0,134.846,1563.91,-111925)">
            <path d="M-10.538,833.654L-9.925,833.654" style="fill:none;stroke:black;stroke-width:0.01px;"/>
        </g>
        <g transform="matrix(134.846,0,0,134.846,1563.91,-111925)">
            <path d="M-11.345,833.851L-10.735,833.851" style="fill:none;stroke:black;stroke-width:0.01px;"/>
        </g>
        <g transform="matrix(134.846,0,0,134.846,1563.91,-111925)">
            <path d="M-11.147,833.753L-11.453,833.753" style="fill:none;stroke:black;stroke-width:0.01px;"/>
        </g>
        <g transform="matrix(134.846,0,0,134.846,1563.91,-111925)">
            <path d="M-10.943,833.753L-10.637,833.753" style="fill:none;stroke:black;stroke-width:0.01px;"/>
        </g>
        <g transform="matrix(134.846,0,0,134.846,1563.91,-111925)">
            <path d="M-11.357,833.654L-10.743,833.654" style="fill:none;stroke:black;stroke-width:0.01px;"/>
        </g>
        <g transform="matrix(134.846,0,0,134.846,1563.91,-111925)">
            <path d="M-8.084,833.654L-7.47,833.654" style="fill:none;stroke:black;stroke-width:0.01px;"/>
        </g>
        <g transform="matrix(134.846,0,0,134.846,1563.91,-111925)">
            <path d="M-7.876,833.556L-8.184,833.556" style="fill:none;stroke:black;stroke-width:0.01px;"/>
        </g>
        <g transform="matrix(134.846,0,0,134.846,1563.91,-111925)">
            <path d="M-7.671,833.556L-7.364,833.556" style="fill:none;stroke:black;stroke-width:0.01px;"/>
        </g>
        <g transform="matrix(134.846,0,0,134.846,1563.91,-111925)">
            <path d="M-8.078,833.457L-7.462,833.457" style="fill:none;stroke:black;stroke-width:0.01px;"/>
        </g>
        <g transform="matrix(134.846,0,0,134.846,1563.91,-111925)">
            <path d="M-8.902,833.654L-8.288,833.654" style="fill:none;stroke:black;stroke-width:0.01px;"/>
        </g>
        <g transform="matrix(134.846,0,0,134.846,1563.91,-111925)">
            <path d="M-8.696,833.556L-9.003,833.556" style="fill:none;stroke:black;stroke-width:0.01px;"/>
        </g>
        <g transform="matrix(134.846,0,0,134.846,1563.91,-111925)">
            <path d="M-8.491,833.556L-8.184,833.556" style="fill:none;stroke:black;stroke-width:0.01px;"/>
        </g>
        <g transform="matrix(134.846,0,0,134.846,1563.91,-111925)">
            <path d="M-8.9,833.457L-8.284,833.457" style="fill:none;stroke:black;stroke-width:0.01px;"/>
        </g>
        <g transform="matrix(134.846,0,0,134.846,1563.91,-111925)">
            <path d="M-9.72,833.654L-9.106,833.654" style="fill:none;stroke:black;stroke-width:0.01px;"/>
        </g>
        <g transform="matrix(134.846,0,0,134.846,1563.91,-111925)">
            <path d="M-9.516,833.556L-9.823,833.556" style="fill:none;stroke:black;stroke-width:0.01px;"/>
        </g>
        <g transform="matrix(134.846,0,0,134.846,1563.91,-111925)">
            <path d="M-9.311,833.556L-9.003,833.556" style="fill:none;stroke:black;stroke-width:0.01px;"/>
        </g>
        <g transform="matrix(134.846,0,0,134.846,1563.91,-111925)">
            <path d="M-9.721,833.457L-9.105,833.457" style="fill:none;stroke:black;stroke-width:0.01px;"/>
        </g>
        <g transform="matrix(134.846,0,0,134.846,1563.91,-111925)">
            <path d="M-10.538,833.654L-9.925,833.654" style="fill:none;stroke:black;stroke-width:0.01px;"/>
        </g>
        <g transform="matrix(134.846,0,0,134.846,1563.91,-111925)">
            <path d="M-10.336,833.556L-10.643,833.556" style="fill:none;stroke:black;stroke-width:0.01px;"/>
        </g>
        <g transform="matrix(134.846,0,0,134.846,1563.91,-111925)">
            <path d="M-10.131,833.556L-9.823,833.556" style="fill:none;stroke:black;stroke-width:0.01px;"/>
        </g>
        <g transform="matrix(134.846,0,0,134.846,1563.91,-111925)">
            <path d="M-10.543,833.457L-9.927,833.457" style="fill:none;stroke:black;stroke-width:0.01px;"/>
        </g>
        <g transform="matrix(134.846,0,0,134.846,1563.91,-111925)">
            <path d="M-11.357,833.654L-10.743,833.654" style="fill:none;stroke:black;stroke-width:0.01px;"/>
        </g>
        <g transform="matrix(134.846,0,0,134.846,1563.91,-111925)">
            <path d="M-11.156,833.556L-11.463,833.556" style="fill:none;stroke:black;stroke-width:0.01px;"/>
        </g>
        <g transform="matrix(134.846,0,0,134.846,1563.91,-111925)">
            <path d="M-10.951,833.556L-10.643,833.556" style="fill:none;stroke:black;stroke-width:0.01px;"/>
        </g>
        <g transform="matrix(134.846,0,0,134.846,1563.91,-111925)">
            <path d="M-11.364,833.457L-10.748,833.457" style="fill:none;stroke:black;stroke-width:0.01px;"/>
        </g>
        <g transform="matrix(134.846,0,0,134.846,1563.91,-111925)">
            <path d="M-8.078,833.457L-7.462,833.457" style="fill:none;stroke:black;stroke-width:0.01px;"/>
        </g>
        <g transform="matrix(134.846,0,0,134.846,1563.91,-111925)">
            <path d="M-7.871,833.359L-8.179,833.359" style="fill:none;stroke:black;stroke-width:0.01px;"/>
        </g>
        <g transform="matrix(134.846,0,0,134.846,1563.91,-111925)">
            <path d="M-7.665,833.359L-7.357,833.359" style="fill:none;stroke:black;stroke-width:0.01px;"/>
        </g>
        <g transform="matrix(134.846,0,0,134.846,1563.91,-111925)">
            <path d="M-8.075,833.26L-7.457,833.26" style="fill:none;stroke:black;stroke-width:0.01px;"/>
        </g>
        <g transform="matrix(134.846,0,0,134.846,1563.91,-111925)">
            <path d="M-8.9,833.457L-8.284,833.457" style="fill:none;stroke:black;stroke-width:0.01px;"/>
        </g>
        <g transform="matrix(134.846,0,0,134.846,1563.91,-111925)">
            <path d="M-8.694,833.359L-9.002,833.359" style="fill:none;stroke:black;stroke-width:0.01px;"/>
        </g>
        <g transform="matrix(134.846,0,0,134.846,1563.91,-111925)">
            <path d="M-8.488,833.359L-8.179,833.359" style="fill:none;stroke:black;stroke-width:0.01px;"/>
        </g>
        <g transform="matrix(134.846,0,0,134.846,1563.91,-111925)">
            <path d="M-8.899,833.26L-8.281,833.26" style="fill:none;stroke:black;stroke-width:0.01px;"/>
        </g>
        <g transform="matrix(134.846,0,0,134.846,1563.91,-111925)">
            <path d="M-9.721,833.457L-9.105,833.457" style="fill:none;stroke:black;stroke-width:0.01px;"/>
        </g>
        <g transform="matrix(134.846,0,0,134.846,1563.91,-111925)">
            <path d="M-9.516,833.359L-9.825,833.359" style="fill:none;stroke:black;stroke-width:0.01px;"/>
        </g>
        <g transform="matrix(134.846,0,0,134.846,1563.91,-111925)">
            <path d="M-9.31,833.359L-9.002,833.359" style="fill:none;stroke:black;stroke-width:0.01px;"/>
        </g>
        <g transform="matrix(134.846,0,0,134.846,1563.91,-111925)">
            <path d="M-9.722,833.26L-9.104,833.26" style="fill:none;stroke:black;stroke-width:0.01px;"/>
        </g>
        <g transform="matrix(134.846,0,0,134.846,1563.91,-111925)">
            <path d="M-10.543,833.457L-9.927,833.457" style="fill:none;stroke:black;stroke-width:0.01px;"/>
        </g>
        <g transform="matrix(134.846,0,0,134.846,1563.91,-111925)">
            <path d="M-10.339,833.359L-10.647,833.359" style="fill:none;stroke:black;stroke-width:0.01px;"/>
        </g>
        <g transform="matrix(134.846,0,0,134.846,1563.91,-111925)">
            <path d="M-10.133,833.359L-9.825,833.359" style="fill:none;stroke:black;stroke-width:0.01px;"/>
        </g>
        <g transform="matrix(134.846,0,0,134.846,1563.91,-111925)">
            <path d="M-10.546,833.26L-9.928,833.26" style="fill:none;stroke:black;stroke-width:0.01px;"/>
        </g>
        <g transform="matrix(134.846,0,0,134.846,1563.91,-111925)">
            <path d="M-11.364,833.457L-10.748,833.457" style="fill:none;stroke:black;stroke-width:0.01px;"/>
        </g>
        <g transform="matrix(134.846,0,0,134.846,1563.91,-111925)">
            <path d="M-11.161,833.359L-11.47,833.359" style="fill:none;stroke:black;stroke-width:0.01px;"/>
        </g>
        <g transform="matrix(134.846,0,0,134.846,1563.91,-111925)">
            <path d="M-10.956,833.359L-10.647,833.359" style="fill:none;stroke:black;stroke-width:0.01px;"/>
        </g>
        <g transform="matrix(134.846,0,0,134.846,1563.91,-111925)">
            <path d="M-11.369,833.26L-10.752,833.26" style="fill:none;stroke:black;stroke-width:0.01px;"/>
        </g>
        <g transform="matrix(134.846,0,0,134.846,1563.91,-111925)">
            <path d="M-8.075,833.26L-7.457,833.26" style="fill:none;stroke:black;stroke-width:0.01px;"/>
        </g>
        <g transform="matrix(134.846,0,0,134.846,1563.91,-111925)">
            <path d="M-7.868,833.162L-8.177,833.162" style="fill:none;stroke:black;stroke-width:0.01px;"/>
        </g>
        <g transform="matrix(134.846,0,0,134.846,1563.91,-111925)">
            <path d="M-7.662,833.162L-7.353,833.162" style="fill:none;stroke:black;stroke-width:0.01px;"/>
        </g>
        <g transform="matrix(134.846,0,0,134.846,1563.91,-111925)">
            <path d="M-8.073,833.063L-7.454,833.063" style="fill:none;stroke:black;stroke-width:0.01px;"/>
        </g>
        <g transform="matrix(134.846,0,0,134.846,1563.91,-111925)">
            <path d="M-8.899,833.26L-8.281,833.26" style="fill:none;stroke:black;stroke-width:0.01px;"/>
        </g>
        <g transform="matrix(134.846,0,0,134.846,1563.91,-111925)">
            <path d="M-8.692,833.162L-9.001,833.162" style="fill:none;stroke:black;stroke-width:0.01px;"/>
        </g>
        <g transform="matrix(134.846,0,0,134.846,1563.91,-111925)">
            <path d="M-8.486,833.162L-8.177,833.162" style="fill:none;stroke:black;stroke-width:0.01px;"/>
        </g>
        <g transform="matrix(134.846,0,0,134.846,1563.91,-111925)">
            <path d="M-8.898,833.063L-8.279,833.063" style="fill:none;stroke:black;stroke-width:0.01px;"/>
        </g>
        <g transform="matrix(134.846,0,0,134.846,1563.91,-111925)">
            <path d="M-9.722,833.26L-9.104,833.26" style="fill:none;stroke:black;stroke-width:0.01px;"/>
        </g>
        <g transform="matrix(134.846,0,0,134.846,1563.91,-111925)">
            <path d="M-9.516,833.162L-9.825,833.162" style="fill:none;stroke:black;stroke-width:0.01px;"/>
        </g>
        <g transform="matrix(134.846,0,0,134.846,1563.91,-111925)">
            <path d="M-9.31,833.162L-9.001,833.162" style="fill:none;stroke:black;stroke-width:0.01px;"/>
        </g>
        <g transform="matrix(134.846,0,0,134.846,1563.91,-111925)">
            <path d="M-9.723,833.063L-9.104,833.063" style="fill:none;stroke:black;stroke-width:0.01px;"/>
        </g>
        <g transform="matrix(134.846,0,0,134.846,1563.91,-111925)">
            <path d="M-10.546,833.26L-9.928,833.26" style="fill:none;stroke:black;stroke-width:0.01px;"/>
        </g>
        <g transform="matrix(134.846,0,0,134.846,1563.91,-111925)">
            <path d="M-10.341,833.162L-10.65,833.162" style="fill:none;stroke:black;stroke-width:0.01px;"/>
        </g>
        <g transform="matrix(134.846,0,0,134.846,1563.91,-111925)">
            <path d="M-10.134,833.162L-9.825,833.162" style="fill:none;stroke:black;stroke-width:0.01px;"/>
        </g>
        <g transform="matrix(134.846,0,0,134.846,1563.91,-111925)">
            <path d="M-10.548,833.063L-9.929,833.063" style="fill:none;stroke:black;stroke-width:0.01px;"/>
        </g>
        <g transform="matrix(134.846,0,0,134.846,1563.91,-111925)">
            <path d="M-11.369,833.26L-10.752,833.26" style="fill:none;stroke:black;stroke-width:0.01px;"/>
        </g>
        <g transform="matrix(134.846,0,0,134.846,1563.91,-111925)">
            <path d="M-11.165,833.162L-11.474,833.162" style="fill:none;stroke:black;stroke-width:0.01px;"/>
        </g>
        <g transform="matrix(134.846,0,0,134.846,1563.91,-111925)">
            <path d="M-10.959,833.162L-10.65,833.162" style="fill:none;stroke:black;stroke-width:0.01px;"/>
        </g>
        <g transform="matrix(134.846,0,0,134.846,1563.91,-111925)">
            <path d="M-11.373,833.063L-10.754,833.063" style="fill:none;stroke:black;stroke-width:0.01px;"/>
        </g>
        <g transform="matrix(134.846,0,0,134.846,1563.91,-111925)">
            <path d="M-8.073,833.063L-7.454,833.063" style="fill:none;stroke:black;stroke-width:0.01px;"/>
        </g>
        <g transform="matrix(134.846,0,0,134.846,1563.91,-111925)">
            <path d="M-7.866,832.965L-8.175,832.965" style="fill:none;stroke:black;stroke-width:0.01px;"/>
        </g>
        <g transform="matrix(134.846,0,0,134.846,1563.91,-111925)">
            <path d="M-7.66,832.965L-7.35,832.965" style="fill:none;stroke:black;stroke-width:0.01px;"/>
        </g>
        <g transform="matrix(134.846,0,0,134.846,1563.91,-111925)">
            <path d="M-8.072,832.866L-7.452,832.866" style="fill:none;stroke:black;stroke-width:0.01px;"/>
        </g>
        <g transform="matrix(134.846,0,0,134.846,1563.91,-111925)">
            <path d="M-8.898,833.063L-8.279,833.063" style="fill:none;stroke:black;stroke-width:0.01px;"/>
        </g>
        <g transform="matrix(134.846,0,0,134.846,1563.91,-111925)">
            <path d="M-8.691,832.965L-9.001,832.965" style="fill:none;stroke:black;stroke-width:0.01px;"/>
        </g>
        <g transform="matrix(134.846,0,0,134.846,1563.91,-111925)">
            <path d="M-8.485,832.965L-8.175,832.965" style="fill:none;stroke:black;stroke-width:0.01px;"/>
        </g>
        <g transform="matrix(134.846,0,0,134.846,1563.91,-111925)">
            <path d="M-8.897,832.866L-8.278,832.866" style="fill:none;stroke:black;stroke-width:0.01px;"/>
        </g>
        <g transform="matrix(134.846,0,0,134.846,1563.91,-111925)">
            <path d="M-9.723,833.063L-9.104,833.063" style="fill:none;stroke:black;stroke-width:0.01px;"/>
        </g>
        <g transform="matrix(134.846,0,0,134.846,1563.91,-111925)">
            <path d="M-9.516,832.965L-9.826,832.965" style="fill:none;stroke:black;stroke-width:0.01px;"/>
        </g>
        <g transform="matrix(134.846,0,0,134.846,1563.91,-111925)">
            <path d="M-9.31,832.965L-9.001,832.965" style="fill:none;stroke:black;stroke-width:0.01px;"/>
        </g>
        <g transform="matrix(134.846,0,0,134.846,1563.91,-111925)">
            <path d="M-9.723,832.866L-9.104,832.866" style="fill:none;stroke:black;stroke-width:0.01px;"/>
        </g>
        <g transform="matrix(134.846,0,0,134.846,1563.91,-111925)">
            <path d="M-10.548,833.063L-9.929,833.063" style="fill:none;stroke:black;stroke-width:0.01px;"/>
        </g>
        <g transform="matrix(134.846,0,0,134.846,1563.91,-111925)">
            <path d="M-10.342,832.965L-10.651,832.965" style="fill:none;stroke:black;stroke-width:0.01px;"/>
        </g>
        <g transform="matrix(134.846,0,0,134.846,1563.91,-111925)">
            <path d="M-10.135,832.965L-9.826,832.965" style="fill:none;stroke:black;stroke-width:0.01px;"/>
        </g>
        <g transform="matrix(134.846,0,0,134.846,1563.91,-111925)">
            <path d="M-10.549,832.866L-9.929,832.866" style="fill:none;stroke:black;stroke-width:0.01px;"/>
        </g>
        <g transform="matrix(134.846,0,0,134.846,1563.91,-111925)">
            <path d="M-11.373,833.063L-10.754,833.063" style="fill:none;stroke:black;stroke-width:0.01px;"/>
        </g>
        <g transform="matrix(134.846,0,0,134.846,1563.91,-111925)">
            <path d="M-11.167,832.965L-11.477,832.965" style="fill:none;stroke:black;stroke-width:0.01px;"/>
        </g>
        <g transform="matrix(134.846,0,0,134.846,1563.91,-111925)">
            <path d="M-10.961,832.965L-10.651,832.965" style="fill:none;stroke:black;stroke-width:0.01px;"/>
        </g>
        <g transform="matrix(134.846,0,0,134.846,1563.91,-111925)">
            <path d="M-11.374,832.866L-10.755,832.866" style="fill:none;stroke:black;stroke-width:0.01px;"/>
        </g>
        <g transform="matrix(134.846,0,0,134.846,1563.91,-111925)">
            <path d="M-8.072,832.866L-7.452,832.866" style="fill:none;stroke:black;stroke-width:0.01px;"/>
        </g>
        <g transform="matrix(134.846,0,0,134.846,1563.91,-111925)">
            <path d="M-7.865,832.768L-8.174,832.768" style="fill:none;stroke:black;stroke-width:0.01px;"/>
        </g>
        <g transform="matrix(134.846,0,0,134.846,1563.91,-111925)">
            <path d="M-7.658,832.768L-7.349,832.768" style="fill:none;stroke:black;stroke-width:0.01px;"/>
        </g>
        <g transform="matrix(134.846,0,0,134.846,1563.91,-111925)">
            <path d="M-8.071,832.669L-7.451,832.669" style="fill:none;stroke:black;stroke-width:0.01px;"/>
        </g>
        <g transform="matrix(134.846,0,0,134.846,1563.91,-111925)">
            <path d="M-8.897,832.866L-8.278,832.866" style="fill:none;stroke:black;stroke-width:0.01px;"/>
        </g>
        <g transform="matrix(134.846,0,0,134.846,1563.91,-111925)">
            <path d="M-8.691,832.768L-9,832.768" style="fill:none;stroke:black;stroke-width:0.01px;"/>
        </g>
        <g transform="matrix(134.846,0,0,134.846,1563.91,-111925)">
            <path d="M-8.484,832.768L-8.174,832.768" style="fill:none;stroke:black;stroke-width:0.01px;"/>
        </g>
        <g transform="matrix(134.846,0,0,134.846,1563.91,-111925)">
            <path d="M-8.897,832.669L-8.277,832.669" style="fill:none;stroke:black;stroke-width:0.01px;"/>
        </g>
        <g transform="matrix(134.846,0,0,134.846,1563.91,-111925)">
            <path d="M-9.723,832.866L-9.104,832.866" style="fill:none;stroke:black;stroke-width:0.01px;"/>
        </g>
        <g transform="matrix(134.846,0,0,134.846,1563.91,-111925)">
            <path d="M-9.517,832.768L-9.826,832.768" style="fill:none;stroke:black;stroke-width:0.01px;"/>
        </g>
        <g transform="matrix(134.846,0,0,134.846,1563.91,-111925)">
            <path d="M-9.31,832.768L-9,832.768" style="fill:none;stroke:black;stroke-width:0.01px;"/>
        </g>
        <g transform="matrix(134.846,0,0,134.846,1563.91,-111925)">
            <path d="M-9.723,832.669L-9.104,832.669" style="fill:none;stroke:black;stroke-width:0.01px;"/>
        </g>
        <g transform="matrix(134.846,0,0,134.846,1563.91,-111925)">
            <path d="M-10.549,832.866L-9.929,832.866" style="fill:none;stroke:black;stroke-width:0.01px;"/>
        </g>
        <g transform="matrix(134.846,0,0,134.846,1563.91,-111925)">
            <path d="M-10.342,832.768L-10.652,832.768" style="fill:none;stroke:black;stroke-width:0.01px;"/>
        </g>
        <g transform="matrix(134.846,0,0,134.846,1563.91,-111925)">
            <path d="M-10.136,832.768L-9.826,832.768" style="fill:none;stroke:black;stroke-width:0.01px;"/>
        </g>
        <g transform="matrix(134.846,0,0,134.846,1563.91,-111925)">
            <path d="M-10.549,832.669L-9.93,832.669" style="fill:none;stroke:black;stroke-width:0.01px;"/>
        </g>
        <g transform="matrix(134.846,0,0,134.846,1563.91,-111925)">
            <path d="M-11.374,832.866L-10.755,832.866" style="fill:none;stroke:black;stroke-width:0.01px;"/>
        </g>
        <g transform="matrix(134.846,0,0,134.846,1563.91,-111925)">
            <path d="M-11.168,832.768L-11.478,832.768" style="fill:none;stroke:black;stroke-width:0.01px;"/>
        </g>
        <g transform="matrix(134.846,0,0,134.846,1563.91,-111925)">
            <path d="M-10.962,832.768L-10.652,832.768" style="fill:none;stroke:black;stroke-width:0.01px;"/>
        </g>
        <g transform="matrix(134.846,0,0,134.846,1563.91,-111925)">
            <path d="M-11.375,832.669L-10.756,832.669" style="fill:none;stroke:black;stroke-width:0.01px;"/>
        </g>
        <g transform="matrix(134.846,0,0,134.846,1563.91,-111925)">
            <path d="M-8.071,832.669L-7.451,832.669" style="fill:none;stroke:black;stroke-width:0.01px;"/>
        </g>
        <g transform="matrix(134.846,0,0,134.846,1563.91,-111925)">
            <path d="M-7.864,832.57L-8.174,832.57" style="fill:none;stroke:black;stroke-width:0.01px;"/>
        </g>
        <g transform="matrix(134.846,0,0,134.846,1563.91,-111925)">
            <path d="M-7.658,832.57L-7.348,832.57" style="fill:none;stroke:black;stroke-width:0.01px;"/>
        </g>
        <g transform="matrix(134.846,0,0,134.846,1563.91,-111925)">
            <path d="M-8.071,832.472L-7.451,832.472" style="fill:none;stroke:black;stroke-width:0.01px;"/>
        </g>
        <g transform="matrix(134.846,0,0,134.846,1563.91,-111925)">
            <path d="M-8.897,832.669L-8.277,832.669" style="fill:none;stroke:black;stroke-width:0.01px;"/>
        </g>
        <g transform="matrix(134.846,0,0,134.846,1563.91,-111925)">
            <path d="M-8.69,832.57L-9,832.57" style="fill:none;stroke:black;stroke-width:0.01px;"/>
        </g>
        <g transform="matrix(134.846,0,0,134.846,1563.91,-111925)">
            <path d="M-8.484,832.57L-8.174,832.57" style="fill:none;stroke:black;stroke-width:0.01px;"/>
        </g>
        <g transform="matrix(134.846,0,0,134.846,1563.91,-111925)">
            <path d="M-8.897,832.472L-8.277,832.472" style="fill:none;stroke:black;stroke-width:0.01px;"/>
        </g>
        <g transform="matrix(134.846,0,0,134.846,1563.91,-111925)">
            <path d="M-9.723,832.669L-9.104,832.669" style="fill:none;stroke:black;stroke-width:0.01px;"/>
        </g>
        <g transform="matrix(134.846,0,0,134.846,1563.91,-111925)">
            <path d="M-9.517,832.57L-9.826,832.57" style="fill:none;stroke:black;stroke-width:0.01px;"/>
        </g>
        <g transform="matrix(134.846,0,0,134.846,1563.91,-111925)">
            <path d="M-9.31,832.57L-9,832.57" style="fill:none;stroke:black;stroke-width:0.01px;"/>
        </g>
        <g transform="matrix(134.846,0,0,134.846,1563.91,-111925)">
            <path d="M-9.723,832.472L-9.103,832.472" style="fill:none;stroke:black;stroke-width:0.01px;"/>
        </g>
        <g transform="matrix(134.846,0,0,134.846,1563.91,-111925)">
            <path d="M-10.549,832.669L-9.93,832.669" style="fill:none;stroke:black;stroke-width:0.01px;"/>
        </g>
        <g transform="matrix(134.846,0,0,134.846,1563.91,-111925)">
            <path d="M-10.343,832.57L-10.653,832.57" style="fill:none;stroke:black;stroke-width:0.01px;"/>
        </g>
        <g transform="matrix(134.846,0,0,134.846,1563.91,-111925)">
            <path d="M-10.136,832.57L-9.826,832.57" style="fill:none;stroke:black;stroke-width:0.01px;"/>
        </g>
        <g transform="matrix(134.846,0,0,134.846,1563.91,-111925)">
            <path d="M-10.549,832.472L-9.93,832.472" style="fill:none;stroke:black;stroke-width:0.01px;"/>
        </g>
        <g transform="matrix(134.846,0,0,134.846,1563.91,-111925)">
            <path d="M-11.375,832.669L-10.756,832.669" style="fill:none;stroke:black;stroke-width:0.01px;"/>
        </g>
        <g transform="matrix(134.846,0,0,134.846,1563.91,-111925)">
            <path d="M-11.169,832.57L-11.479,832.57" style="fill:none;stroke:black;stroke-width:0.01px;"/>
        </g>
        <g transform="matrix(134.846,0,0,134.846,1563.91,-111925)">
            <path d="M-10.962,832.57L-10.653,832.57" style="fill:none;stroke:black;stroke-width:0.01px;"/>
        </g>
        <g transform="matrix(134.846,0,0,134.846,1563.91,-111925)">
            <path d="M-11.376,832.472L-10.756,832.472" style="fill:none;stroke:black;stroke-width:0.01px;"/>
        </g>
        <g transform="matrix(134.846,0,0,134.846,1563.91,-111925)">
            <path d="M-8.071,832.472L-7.451,832.472" style="fill:none;stroke:black;stroke-width:0.01px;"/>
        </g>
        <g transform="matrix(134.846,0,0,134.846,1563.91,-111925)">
            <path d="M-7.864,832.373L-8.174,832.373" style="fill:none;stroke:black;stroke-width:0.01px;"/>
        </g>
        <g transform="matrix(134.846,0,0,134.846,1563.91,-111925)">
            <path d="M-7.657,832.373L-7.347,832.373" style="fill:none;stroke:black;stroke-width:0.01px;"/>
        </g>
        <g transform="matrix(134.846,0,0,134.846,1563.91,-111925)">
            <path d="M-8.07,832.275L-7.451,832.275" style="fill:none;stroke:black;stroke-width:0.01px;"/>
        </g>
        <g transform="matrix(134.846,0,0,134.846,1563.91,-111925)">
            <path d="M-8.897,832.472L-8.277,832.472" style="fill:none;stroke:black;stroke-width:0.01px;"/>
        </g>
        <g transform="matrix(134.846,0,0,134.846,1563.91,-111925)">
            <path d="M-8.69,832.373L-9,832.373" style="fill:none;stroke:black;stroke-width:0.01px;"/>
        </g>
        <g transform="matrix(134.846,0,0,134.846,1563.91,-111925)">
            <path d="M-8.484,832.373L-8.174,832.373" style="fill:none;stroke:black;stroke-width:0.01px;"/>
        </g>
        <g transform="matrix(134.846,0,0,134.846,1563.91,-111925)">
            <path d="M-8.897,832.275L-8.277,832.275" style="fill:none;stroke:black;stroke-width:0.01px;"/>
        </g>
        <g transform="matrix(134.846,0,0,134.846,1563.91,-111925)">
            <path d="M-9.723,832.472L-9.103,832.472" style="fill:none;stroke:black;stroke-width:0.01px;"/>
        </g>
        <g transform="matrix(134.846,0,0,134.846,1563.91,-111925)">
            <path d="M-9.517,832.373L-9.826,832.373" style="fill:none;stroke:black;stroke-width:0.01px;"/>
        </g>
        <g transform="matrix(134.846,0,0,134.846,1563.91,-111925)">
            <path d="M-9.31,832.373L-9,832.373" style="fill:none;stroke:black;stroke-width:0.01px;"/>
        </g>
        <g transform="matrix(134.846,0,0,134.846,1563.91,-111925)">
            <path d="M-9.723,832.275L-9.103,832.275" style="fill:none;stroke:black;stroke-width:0.01px;"/>
        </g>
        <g transform="matrix(134.846,0,0,134.846,1563.91,-111925)">
            <path d="M-10.549,832.472L-9.93,832.472" style="fill:none;stroke:black;stroke-width:0.01px;"/>
        </g>
        <g transform="matrix(134.846,0,0,134.846,1563.91,-111925)">
            <path d="M-10.343,832.373L-10.653,832.373" style="fill:none;stroke:black;stroke-width:0.01px;"/>
        </g>
        <g transform="matrix(134.846,0,0,134.846,1563.91,-111925)">
            <path d="M-10.136,832.373L-9.826,832.373" style="fill:none;stroke:black;stroke-width:0.01px;"/>
        </g>
        <g transform="matrix(134.846,0,0,134.846,1563.91,-111925)">
            <path d="M-10.55,832.275L-9.93,832.275" style="fill:none;stroke:black;stroke-width:0.01px;"/>
        </g>
        <g transform="matrix(134.846,0,0,134.846,1563.91,-111925)">
            <path d="M-11.376,832.472L-10.756,832.472" style="fill:none;stroke:black;stroke-width:0.01px;"/>
        </g>
        <g transform="matrix(134.846,0,0,134.846,1563.91,-111925)">
            <path d="M-11.169,832.373L-11.479,832.373" style="fill:none;stroke:black;stroke-width:0.01px;"/>
        </g>
        <g transform="matrix(134.846,0,0,134.846,1563.91,-111925)">
            <path d="M-10.963,832.373L-10.653,832.373" style="fill:none;stroke:black;stroke-width:0.01px;"/>
        </g>
        <g transform="matrix(134.846,0,0,134.846,1563.91,-111925)">
            <path d="M-11.376,832.275L-10.756,832.275" style="fill:none;stroke:black;stroke-width:0.01px;"/>
        </g>
        <g transform="matrix(134.846,0,0,134.846,1563.91,-111925)">
            <path d="M-8.07,832.275L-7.451,832.275" style="fill:none;stroke:black;stroke-width:0.01px;"/>
        </g>
        <g transform="matrix(134.846,0,0,134.846,1563.91,-111925)">
            <path d="M-7.864,832.176L-8.174,832.176" style="fill:none;stroke:black;stroke-width:0.01px;"/>
        </g>
        <g transform="matrix(134.846,0,0,134.846,1563.91,-111925)">
            <path d="M-7.657,832.176L-7.347,832.176" style="fill:none;stroke:black;stroke-width:0.01px;"/>
        </g>
        <g transform="matrix(134.846,0,0,134.846,1563.91,-111925)">
            <path d="M-8.07,832.077L-7.451,832.077" style="fill:none;stroke:black;stroke-width:0.01px;"/>
        </g>
        <g transform="matrix(134.846,0,0,134.846,1563.91,-111925)">
            <path d="M-8.897,832.275L-8.277,832.275" style="fill:none;stroke:black;stroke-width:0.01px;"/>
        </g>
        <g transform="matrix(134.846,0,0,134.846,1563.91,-111925)">
            <path d="M-8.69,832.176L-9,832.176" style="fill:none;stroke:black;stroke-width:0.01px;"/>
        </g>
        <g transform="matrix(134.846,0,0,134.846,1563.91,-111925)">
            <path d="M-8.484,832.176L-8.174,832.176" style="fill:none;stroke:black;stroke-width:0.01px;"/>
        </g>
        <g transform="matrix(134.846,0,0,134.846,1563.91,-111925)">
            <path d="M-8.897,832.077L-8.277,832.077" style="fill:none;stroke:black;stroke-width:0.01px;"/>
        </g>
        <g transform="matrix(134.846,0,0,134.846,1563.91,-111925)">
            <path d="M-9.723,832.275L-9.103,832.275" style="fill:none;stroke:black;stroke-width:0.01px;"/>
        </g>
        <g transform="matrix(134.846,0,0,134.846,1563.91,-111925)">
            <path d="M-9.517,832.176L-9.826,832.176" style="fill:none;stroke:black;stroke-width:0.01px;"/>
        </g>
        <g transform="matrix(134.846,0,0,134.846,1563.91,-111925)">
            <path d="M-9.31,832.176L-9,832.176" style="fill:none;stroke:black;stroke-width:0.01px;"/>
        </g>
        <g transform="matrix(134.846,0,0,134.846,1563.91,-111925)">
            <path d="M-9.723,832.077L-9.103,832.077" style="fill:none;stroke:black;stroke-width:0.01px;"/>
        </g>
        <g transform="matrix(134.846,0,0,134.846,1563.91,-111925)">
            <path d="M-10.55,832.275L-9.93,832.275" style="fill:none;stroke:black;stroke-width:0.01px;"/>
        </g>
        <g transform="matrix(134.846,0,0,134.846,1563.91,-111925)">
            <path d="M-10.343,832.176L-10.653,832.176" style="fill:none;stroke:black;stroke-width:0.01px;"/>
        </g>
        <g transform="matrix(134.846,0,0,134.846,1563.91,-111925)">
            <path d="M-10.136,832.176L-9.826,832.176" style="fill:none;stroke:black;stroke-width:0.01px;"/>
        </g>
        <g transform="matrix(134.846,0,0,134.846,1563.91,-111925)">
            <path d="M-10.55,832.077L-9.93,832.077" style="fill:none;stroke:black;stroke-width:0.01px;"/>
        </g>
        <g transform="matrix(134.846,0,0,134.846,1563.91,-111925)">
            <path d="M-11.376,832.275L-10.756,832.275" style="fill:none;stroke:black;stroke-width:0.01px;"/>
        </g>
        <g transform="matrix(134.846,0,0,134.846,1563.91,-111925)">
            <path d="M-11.169,832.176L-11.479,832.176" style="fill:none;stroke:black;stroke-width:0.01px;"/>
        </g>
        <g transform="matrix(134.846,0,0,134.846,1563.91,-111925)">
            <path d="M-10.963,832.176L-10.653,832.176" style="fill:none;stroke:black;stroke-width:0.01px;"/>
        </g>
        <g transform="matrix(134.846,0,0,134.846,1563.91,-111925)">
            <path d="M-11.376,832.077L-10.756,832.077" style="fill:none;stroke:black;stroke-width:0.01px;"/>
        </g>
        <g transform="matrix(134.846,0,0,134.846,1563.91,-111925)">
            <path d="M-11.479,832.077L-11.479,830.425L-7.347,830.425L-7.347,832.077" style="fill:none;stroke:black;stroke-width:0.01px;"/>
        </g>
        <g transform="matrix(134.846,0,0,134.846,1563.91,-111925)">
            <path d="M-8.587,836.209L-10.24,836.209" style="fill:none;stroke:black;stroke-width:0.01px;"/>
        </g>
        <g transform="matrix(134.846,0,0,134.846,1563.91,-111925)">
            <path d="M-7.347,832.077C-7.347,833.258 -7.347,833.553 -7.365,833.799C-7.382,834.045 -7.416,834.242 -7.451,834.438C-7.485,834.635 -7.52,834.832 -7.588,835.078C-7.657,835.324 -7.761,835.619 -8.587,836.209" style="fill:none;stroke:black;stroke-width:0.01px;stroke-linecap:round;stroke-linejoin:round;"/>
        </g>
        <g transform="matrix(134.846,0,0,134.846,1563.91,-111925)">
            <path d="M-11.479,832.077C-11.479,833.258 -11.479,833.553 -11.462,833.799C-11.445,834.045 -11.41,834.242 -11.376,834.438C-11.341,834.635 -11.307,834.832 -11.238,835.078C-11.169,835.324 -11.066,835.619 -10.24,836.209" style="fill:none;stroke:black;stroke-width:0.01px;stroke-linecap:round;stroke-linejoin:round;"/>
        </g>
    </g>
</svg>
