<?xml version="1.0" encoding="UTF-8" standalone="no"?>
<!DOCTYPE svg PUBLIC "-//W3C//DTD SVG 1.1//EN" "http://www.w3.org/Graphics/SVG/1.1/DTD/svg11.dtd">
<svg width="100%" height="100%" viewBox="0 0 2880 2016" version="1.1" xmlns="http://www.w3.org/2000/svg" xmlns:xlink="http://www.w3.org/1999/xlink" xml:space="preserve" xmlns:serif="http://www.serif.com/" style="fill-rule:evenodd;clip-rule:evenodd;">
    <g id="optimized_for_laser">
        <g id="bottom" transform="matrix(4.89859e-17,0.8,-0.8,4.89859e-17,1340.5,1130.71)">
            <path d="M251.575,343.701L251.575,333.071L425.197,333.071L425.197,592.618L414.567,592.618L414.567,852.165L425.197,852.165L425.197,1111.71L414.567,1111.71L414.567,1371.26L251.575,1371.26L251.575,1360.63L88.583,1360.63L88.583,1371.26L-74.409,1371.26L-74.409,1360.63L-237.402,1360.63L-237.402,1111.71L-248.031,1111.71L-248.031,852.165L-237.402,852.165L-237.402,592.618L-248.031,592.618L-248.031,333.071L-237.402,333.071L-237.402,343.701L-74.409,343.701L-74.409,333.071L88.583,333.071L88.583,343.701L251.575,343.701Z" style="fill:none;stroke:black;stroke-width:1px;"/>
        </g>
        <g id="front" transform="matrix(0.8,0,0,0.8,617.393,82.3942)">
            <path d="M-318.898,634.252L-59.35,634.252L-59.35,644.882L200.197,644.882L200.197,634.252L459.744,634.252L459.744,644.882L708.661,644.882L708.661,694.488L719.291,694.488L719.291,744.094L708.661,744.094L708.661,793.701L719.291,793.701L719.291,843.307L708.661,843.307L708.661,892.913L719.291,892.913L719.291,942.52L708.661,942.52L708.661,992.126L719.291,992.126L719.291,1041.73L459.744,1041.73L459.744,1052.36L200.197,1052.36L200.197,1041.73L-59.35,1041.73L-59.35,1052.36L-318.898,1052.36L-318.898,992.126L-308.268,992.126L-308.268,942.52L-318.898,942.52L-318.898,892.913L-308.268,892.913L-308.268,843.307L-318.898,843.307L-318.898,793.701L-308.268,793.701L-308.268,744.094L-318.898,744.094L-318.898,694.488L-308.268,694.488L-308.268,644.882L-318.898,644.882L-318.898,634.252Z" style="fill:none;stroke:black;stroke-width:1px;"/>
        </g>
        <g id="top" transform="matrix(4.89859e-17,0.8,-0.8,4.89859e-17,1492.73,526.179)">
            <g transform="matrix(1,0,0,1,-176.127,39.6894)">
                <path d="M248.031,592.618L237.402,592.618L237.402,852.165L248.031,852.165L248.031,1111.71L237.402,1111.71L237.402,1360.63L74.409,1360.63L74.409,1371.26L-88.583,1371.26L-88.583,1360.63L-251.575,1360.63L-251.575,1371.26L-414.567,1371.26L-414.567,1111.71L-425.197,1111.71L-425.197,852.165L-414.567,852.165L-414.567,592.618L-425.197,592.618L-425.197,333.071L-251.575,333.071L-251.575,343.701L-88.583,343.701L-88.583,333.071L74.409,333.071L74.409,343.701L237.402,343.701L237.402,333.071L248.031,333.071L248.031,592.618Z" style="fill:none;stroke:black;stroke-width:1px;"/>
            </g>
            <g transform="matrix(1.13333,0,0,1.13333,-206.738,-22.0232)">
                <path d="M162.402,462.844C162.402,448.266 150.405,436.27 135.827,436.27C121.248,436.27 109.252,448.266 109.252,462.844C109.252,477.423 121.248,489.419 135.827,489.419C150.405,489.419 162.402,477.423 162.402,462.844C162.402,462.844 162.402,462.844 162.402,462.844Z" style="fill:none;stroke:black;stroke-width:1px;"/>
            </g>
            <g transform="matrix(1,0,0,1,-188.627,39.6894)">
                <path d="M141.319,1176.6C141.319,1173.59 138.84,1171.11 135.827,1171.11C132.814,1171.11 130.335,1173.59 130.335,1176.6C130.335,1179.61 132.814,1182.09 135.827,1182.09C138.84,1182.09 141.319,1179.61 141.319,1176.6C141.319,1176.6 141.319,1176.6 141.319,1176.6Z" style="fill:none;stroke:black;stroke-width:1px;"/>
            </g>
            <g transform="matrix(1.13333,0,0,1.13333,-206.738,-39.3263)">
                <path d="M162.402,592.618C162.402,578.04 150.405,566.043 135.827,566.043C121.248,566.043 109.252,578.04 109.252,592.618C109.252,607.197 121.248,619.193 135.827,619.193C150.405,619.193 162.402,607.197 162.402,592.618C162.402,592.618 162.402,592.618 162.402,592.618Z" style="fill:none;stroke:black;stroke-width:1px;"/>
            </g>
            <g transform="matrix(1,0,0,1,-188.627,39.6894)">
                <path d="M141.319,1241.49C141.319,1238.47 138.84,1235.99 135.827,1235.99C132.814,1235.99 130.335,1238.47 130.335,1241.49C130.335,1244.5 132.814,1246.98 135.827,1246.98C138.84,1246.98 141.319,1244.5 141.319,1241.49C141.319,1241.49 141.319,1241.49 141.319,1241.49Z" style="fill:none;stroke:black;stroke-width:1px;"/>
            </g>
            <g transform="matrix(1,0,0,1,-188.627,39.6894)">
                <path d="M141.319,1111.71C141.319,1108.7 138.84,1106.22 135.827,1106.22C132.814,1106.22 130.335,1108.7 130.335,1111.71C130.335,1114.73 132.814,1117.2 135.827,1117.2C138.84,1117.2 141.319,1114.73 141.319,1111.71C141.319,1111.71 141.319,1111.71 141.319,1111.71Z" style="fill:none;stroke:black;stroke-width:1px;"/>
            </g>
            <g transform="matrix(-1.25,-1.53081e-16,1.53081e-16,-1.25,1332.05,2955.62)">
                <path d="M1050.96,1347.57L1050.96,1342.57C1050.26,1343.29 1049.46,1343.64 1048.57,1343.64C1047.54,1343.64 1046.69,1343.27 1046.01,1342.51C1045.33,1341.75 1044.99,1340.8 1044.99,1339.66C1044.99,1338.5 1045.33,1337.54 1046.01,1336.76C1046.7,1335.99 1047.56,1335.61 1048.6,1335.61C1049.48,1335.61 1050.26,1335.95 1050.96,1336.64L1050.96,1335.82L1052.72,1335.82L1052.72,1347.57L1050.96,1347.57ZM1046.78,1339.58C1046.78,1340.32 1046.98,1340.91 1047.38,1341.37C1047.77,1341.84 1048.28,1342.07 1048.88,1342.07C1049.53,1342.07 1050.06,1341.85 1050.46,1341.4C1050.86,1340.95 1051.07,1340.36 1051.07,1339.64C1051.07,1338.92 1050.86,1338.33 1050.46,1337.87C1050.06,1337.42 1049.54,1337.19 1048.9,1337.19C1048.3,1337.19 1047.79,1337.42 1047.38,1337.88C1046.98,1338.34 1046.78,1338.91 1046.78,1339.58Z" style="fill-rule:nonzero;"/>
                <path d="M1056.88,1335.82L1056.88,1340.18C1056.88,1341.44 1057.38,1342.07 1058.37,1342.07C1059.36,1342.07 1059.86,1341.44 1059.86,1340.18L1059.86,1335.82L1061.62,1335.82L1061.62,1340.22C1061.62,1340.83 1061.54,1341.36 1061.39,1341.8C1061.25,1342.2 1061,1342.55 1060.63,1342.87C1060.04,1343.39 1059.29,1343.64 1058.37,1343.64C1057.46,1343.64 1056.71,1343.39 1056.11,1342.87C1055.75,1342.55 1055.49,1342.2 1055.34,1341.8C1055.19,1341.45 1055.12,1340.92 1055.12,1340.22L1055.12,1335.82L1056.88,1335.82Z" style="fill-rule:nonzero;"/>
                <path d="M1063.48,1339.57C1063.48,1338.47 1063.87,1337.53 1064.66,1336.76C1065.44,1335.99 1066.4,1335.61 1067.53,1335.61C1068.67,1335.61 1069.63,1335.99 1070.42,1336.77C1071.21,1337.55 1071.6,1338.5 1071.6,1339.63C1071.6,1340.77 1071.2,1341.72 1070.42,1342.5C1069.62,1343.26 1068.65,1343.64 1067.5,1343.64C1066.36,1343.64 1065.41,1343.25 1064.63,1342.47C1063.86,1341.7 1063.48,1340.73 1063.48,1339.57ZM1065.28,1339.6C1065.28,1340.36 1065.48,1340.96 1065.88,1341.4C1066.3,1341.85 1066.85,1342.07 1067.53,1342.07C1068.22,1342.07 1068.77,1341.85 1069.18,1341.41C1069.59,1340.97 1069.8,1340.38 1069.8,1339.64C1069.8,1338.9 1069.59,1338.31 1069.18,1337.86C1068.77,1337.41 1068.22,1337.19 1067.53,1337.19C1066.86,1337.19 1066.32,1337.41 1065.9,1337.86C1065.48,1338.31 1065.28,1338.89 1065.28,1339.6Z" style="fill-rule:nonzero;"/>
                <path d="M1075.36,1337.46L1075.36,1343.42L1073.6,1343.42L1073.6,1337.46L1072.85,1337.46L1072.85,1335.82L1073.6,1335.82L1073.6,1333.03L1075.36,1333.03L1075.36,1335.82L1076.73,1335.82L1076.73,1337.46L1075.36,1337.46Z" style="fill-rule:nonzero;"/>
                <path d="M1085,1340.03L1079.54,1340.03C1079.59,1340.66 1079.79,1341.16 1080.15,1341.53C1080.51,1341.89 1080.97,1342.07 1081.53,1342.07C1081.97,1342.07 1082.33,1341.97 1082.62,1341.76C1082.9,1341.55 1083.22,1341.17 1083.58,1340.61L1085.07,1341.43C1084.84,1341.82 1084.59,1342.16 1084.34,1342.44C1084.08,1342.71 1083.81,1342.94 1083.52,1343.12C1083.23,1343.3 1082.91,1343.43 1082.57,1343.52C1082.23,1343.6 1081.87,1343.64 1081.47,1343.64C1080.34,1343.64 1079.42,1343.28 1078.74,1342.55C1078.05,1341.82 1077.71,1340.84 1077.71,1339.63C1077.71,1338.42 1078.04,1337.45 1078.71,1336.71C1079.38,1335.97 1080.27,1335.61 1081.38,1335.61C1082.5,1335.61 1083.38,1335.96 1084.03,1336.67C1084.68,1337.38 1085,1338.37 1085,1339.62L1085,1340.03ZM1083.19,1338.6C1082.94,1337.66 1082.35,1337.19 1081.42,1337.19C1081.2,1337.19 1081,1337.22 1080.82,1337.29C1080.63,1337.35 1080.46,1337.45 1080.3,1337.57C1080.15,1337.69 1080.02,1337.84 1079.91,1338.01C1079.8,1338.18 1079.72,1338.38 1079.66,1338.6L1083.19,1338.6Z" style="fill-rule:nonzero;"/>
                <path d="M1091.34,1337.11L1089.88,1337.89C1089.66,1337.42 1089.37,1337.18 1089.03,1337.18C1088.87,1337.18 1088.73,1337.24 1088.62,1337.34C1088.51,1337.45 1088.45,1337.59 1088.45,1337.75C1088.45,1338.05 1088.79,1338.33 1089.46,1338.62C1090.4,1339.02 1091.02,1339.39 1091.35,1339.73C1091.67,1340.07 1091.83,1340.52 1091.83,1341.1C1091.83,1341.83 1091.56,1342.45 1091.02,1342.94C1090.49,1343.41 1089.86,1343.64 1089.11,1343.64C1087.84,1343.64 1086.93,1343.02 1086.4,1341.78L1087.9,1341.08C1088.11,1341.45 1088.27,1341.68 1088.38,1341.78C1088.59,1341.97 1088.85,1342.07 1089.14,1342.07C1089.74,1342.07 1090.03,1341.8 1090.03,1341.26C1090.03,1340.95 1089.81,1340.66 1089.35,1340.39C1089.17,1340.3 1088.99,1340.21 1088.82,1340.13C1088.64,1340.05 1088.46,1339.96 1088.28,1339.87C1087.77,1339.62 1087.41,1339.37 1087.2,1339.12C1086.93,1338.8 1086.8,1338.39 1086.8,1337.89C1086.8,1337.23 1087.03,1336.68 1087.48,1336.25C1087.94,1335.82 1088.51,1335.61 1089.17,1335.61C1090.14,1335.61 1090.86,1336.11 1091.34,1337.11Z" style="fill-rule:nonzero;"/>
            </g>
            <g transform="matrix(-1.25,-1.53081e-16,1.53081e-16,-1.25,1339.29,2825.85)">
                <path d="M1045.35,1335.82L1047.1,1335.82L1047.1,1336.52C1047.44,1336.16 1047.73,1335.92 1047.97,1335.8C1048.23,1335.67 1048.55,1335.61 1048.93,1335.61C1049.79,1335.61 1050.47,1335.98 1050.97,1336.73C1051.52,1335.98 1052.27,1335.61 1053.21,1335.61C1054.93,1335.61 1055.78,1336.64 1055.78,1338.72L1055.78,1343.42L1054.02,1343.42L1054.02,1339.2C1054.02,1338.47 1053.93,1337.95 1053.75,1337.65C1053.57,1337.34 1053.27,1337.19 1052.85,1337.19C1052.37,1337.19 1052.02,1337.37 1051.8,1337.74C1051.57,1338.1 1051.46,1338.69 1051.46,1339.5L1051.46,1343.42L1049.7,1343.42L1049.7,1339.22C1049.7,1337.87 1049.31,1337.19 1048.53,1337.19C1048.03,1337.19 1047.67,1337.38 1047.44,1337.75C1047.22,1338.12 1047.1,1338.7 1047.1,1339.5L1047.1,1343.42L1045.35,1343.42L1045.35,1335.82Z" style="fill-rule:nonzero;"/>
                <path d="M1063.61,1335.82L1065.38,1335.82L1065.38,1343.42L1063.61,1343.42L1063.61,1342.63C1062.89,1343.31 1062.11,1343.64 1061.28,1343.64C1060.22,1343.64 1059.35,1343.26 1058.67,1342.5C1057.98,1341.73 1057.64,1340.76 1057.64,1339.6C1057.64,1338.46 1057.98,1337.51 1058.67,1336.75C1059.35,1335.99 1060.2,1335.61 1061.23,1335.61C1062.11,1335.61 1062.91,1335.97 1063.61,1336.7L1063.61,1335.82ZM1059.44,1339.6C1059.44,1340.33 1059.63,1340.92 1060.03,1341.38C1060.43,1341.84 1060.93,1342.07 1061.54,1342.07C1062.19,1342.07 1062.72,1341.85 1063.12,1341.4C1063.52,1340.94 1063.72,1340.35 1063.72,1339.64C1063.72,1338.92 1063.52,1338.33 1063.12,1337.87C1062.72,1337.42 1062.2,1337.19 1061.56,1337.19C1060.95,1337.19 1060.45,1337.42 1060.04,1337.88C1059.64,1338.34 1059.44,1338.91 1059.44,1339.6Z" style="fill-rule:nonzero;"/>
                <path d="M1067.6,1335.82L1069.35,1335.82L1069.35,1336.5C1069.68,1336.16 1069.96,1335.92 1070.21,1335.8C1070.47,1335.67 1070.77,1335.61 1071.12,1335.61C1071.58,1335.61 1072.07,1335.76 1072.57,1336.06L1071.77,1337.67C1071.43,1337.43 1071.11,1337.31 1070.79,1337.31C1069.83,1337.31 1069.35,1338.03 1069.35,1339.48L1069.35,1343.42L1067.6,1343.42L1067.6,1335.82Z" style="fill-rule:nonzero;"/>
                <path d="M1075.58,1330.23L1075.58,1338.28L1078.06,1335.82L1080.42,1335.82L1077.11,1339.01L1080.66,1343.42L1078.38,1343.42L1075.86,1340.21L1075.58,1340.5L1075.58,1343.42L1073.82,1343.42L1073.82,1330.23L1075.58,1330.23Z" style="fill-rule:nonzero;"/>
                <path d="M1081.11,1339.57C1081.11,1338.47 1081.51,1337.53 1082.29,1336.76C1083.08,1335.99 1084.04,1335.61 1085.17,1335.61C1086.3,1335.61 1087.27,1335.99 1088.06,1336.77C1088.84,1337.55 1089.23,1338.5 1089.23,1339.63C1089.23,1340.77 1088.84,1341.72 1088.05,1342.5C1087.26,1343.26 1086.29,1343.64 1085.13,1343.64C1084,1343.64 1083.04,1343.25 1082.27,1342.47C1081.5,1341.7 1081.11,1340.73 1081.11,1339.57ZM1082.91,1339.6C1082.91,1340.36 1083.11,1340.96 1083.52,1341.4C1083.93,1341.85 1084.48,1342.07 1085.17,1342.07C1085.85,1342.07 1086.4,1341.85 1086.82,1341.41C1087.23,1340.97 1087.43,1340.38 1087.43,1339.64C1087.43,1338.9 1087.23,1338.31 1086.82,1337.86C1086.4,1337.41 1085.85,1337.19 1085.17,1337.19C1084.5,1337.19 1083.95,1337.41 1083.53,1337.86C1083.12,1338.31 1082.91,1338.89 1082.91,1339.6Z" style="fill-rule:nonzero;"/>
                <path d="M1091.71,1335.82L1093.68,1340.09L1095.64,1335.82L1097.62,1335.82L1093.67,1343.95L1089.75,1335.82L1091.71,1335.82Z" style="fill-rule:nonzero;"/>
            </g>
            <g transform="matrix(-1.25,-1.53081e-16,1.53081e-16,-1.25,1331.21,2890.73)">
                <path d="M1051.27,1336.14L1051.27,1338.48C1050.87,1337.99 1050.51,1337.65 1050.19,1337.47C1049.88,1337.28 1049.51,1337.19 1049.09,1337.19C1048.43,1337.19 1047.88,1337.42 1047.44,1337.89C1047,1338.35 1046.78,1338.93 1046.78,1339.63C1046.78,1340.34 1047,1340.93 1047.42,1341.39C1047.84,1341.84 1048.39,1342.07 1049.05,1342.07C1049.47,1342.07 1049.84,1341.98 1050.17,1341.8C1050.48,1341.62 1050.85,1341.28 1051.27,1340.77L1051.27,1343.09C1050.56,1343.46 1049.84,1343.64 1049.13,1343.64C1047.95,1343.64 1046.97,1343.26 1046.17,1342.5C1045.38,1341.74 1044.99,1340.79 1044.99,1339.65C1044.99,1338.52 1045.39,1337.56 1046.19,1336.78C1046.99,1336 1047.98,1335.61 1049.14,1335.61C1049.89,1335.61 1050.6,1335.78 1051.27,1336.14Z" style="fill-rule:nonzero;"/>
                <path d="M1052.61,1339.57C1052.61,1338.47 1053.01,1337.53 1053.79,1336.76C1054.58,1335.99 1055.54,1335.61 1056.67,1335.61C1057.8,1335.61 1058.77,1335.99 1059.56,1336.77C1060.34,1337.55 1060.73,1338.5 1060.73,1339.63C1060.73,1340.77 1060.34,1341.72 1059.55,1342.5C1058.76,1343.26 1057.79,1343.64 1056.63,1343.64C1055.5,1343.64 1054.54,1343.25 1053.77,1342.47C1053,1341.7 1052.61,1340.73 1052.61,1339.57ZM1054.41,1339.6C1054.41,1340.36 1054.61,1340.96 1055.02,1341.4C1055.43,1341.85 1055.98,1342.07 1056.67,1342.07C1057.35,1342.07 1057.9,1341.85 1058.32,1341.41C1058.73,1340.97 1058.93,1340.38 1058.93,1339.64C1058.93,1338.9 1058.73,1338.31 1058.32,1337.86C1057.9,1337.41 1057.35,1337.19 1056.67,1337.19C1056,1337.19 1055.45,1337.41 1055.03,1337.86C1054.62,1338.31 1054.41,1338.89 1054.41,1339.6Z" style="fill-rule:nonzero;"/>
                <path d="M1062.23,1339.57C1062.23,1338.47 1062.62,1337.53 1063.41,1336.76C1064.19,1335.99 1065.15,1335.61 1066.28,1335.61C1067.42,1335.61 1068.38,1335.99 1069.17,1336.77C1069.96,1337.55 1070.35,1338.5 1070.35,1339.63C1070.35,1340.77 1069.95,1341.72 1069.17,1342.5C1068.38,1343.26 1067.4,1343.64 1066.25,1343.64C1065.11,1343.64 1064.16,1343.25 1063.38,1342.47C1062.61,1341.7 1062.23,1340.73 1062.23,1339.57ZM1064.03,1339.6C1064.03,1340.36 1064.23,1340.96 1064.63,1341.4C1065.05,1341.85 1065.6,1342.07 1066.28,1342.07C1066.97,1342.07 1067.52,1341.85 1067.93,1341.41C1068.34,1340.97 1068.55,1340.38 1068.55,1339.64C1068.55,1338.9 1068.34,1338.31 1067.93,1337.86C1067.52,1337.41 1066.97,1337.19 1066.28,1337.19C1065.61,1337.19 1065.07,1337.41 1064.65,1337.86C1064.23,1338.31 1064.03,1338.89 1064.03,1339.6Z" style="fill-rule:nonzero;"/>
                <path d="M1073.96,1330.23L1073.96,1338.28L1076.44,1335.82L1078.8,1335.82L1075.5,1339.01L1079.04,1343.42L1076.76,1343.42L1074.25,1340.21L1073.96,1340.5L1073.96,1343.42L1072.21,1343.42L1072.21,1330.23L1073.96,1330.23Z" style="fill-rule:nonzero;"/>
                <path d="M1081.93,1335.82L1081.93,1343.42L1080.17,1343.42L1080.17,1335.82L1081.93,1335.82ZM1079.91,1332.65C1079.91,1332.34 1080.02,1332.08 1080.25,1331.86C1080.47,1331.63 1080.74,1331.52 1081.05,1331.52C1081.37,1331.52 1081.64,1331.63 1081.86,1331.86C1082.09,1332.07 1082.2,1332.34 1082.2,1332.66C1082.2,1332.98 1082.09,1333.25 1081.86,1333.47C1081.64,1333.7 1081.38,1333.81 1081.06,1333.81C1080.74,1333.81 1080.47,1333.7 1080.25,1333.47C1080.02,1333.25 1079.91,1332.97 1079.91,1332.65Z" style="fill-rule:nonzero;"/>
                <path d="M1091.09,1340.03L1085.63,1340.03C1085.68,1340.66 1085.88,1341.16 1086.25,1341.53C1086.6,1341.89 1087.07,1342.07 1087.63,1342.07C1088.07,1342.07 1088.43,1341.97 1088.71,1341.76C1089,1341.55 1089.32,1341.17 1089.67,1340.61L1091.16,1341.43C1090.93,1341.82 1090.69,1342.16 1090.43,1342.44C1090.18,1342.71 1089.9,1342.94 1089.61,1343.12C1089.32,1343.3 1089.01,1343.43 1088.67,1343.52C1088.33,1343.6 1087.96,1343.64 1087.57,1343.64C1086.43,1343.64 1085.52,1343.28 1084.83,1342.55C1084.14,1341.82 1083.8,1340.84 1083.8,1339.63C1083.8,1338.42 1084.13,1337.45 1084.8,1336.71C1085.47,1335.97 1086.36,1335.61 1087.47,1335.61C1088.59,1335.61 1089.48,1335.96 1090.13,1336.67C1090.77,1337.38 1091.1,1338.37 1091.1,1339.62L1091.09,1340.03ZM1089.28,1338.6C1089.04,1337.66 1088.45,1337.19 1087.51,1337.19C1087.3,1337.19 1087.1,1337.22 1086.91,1337.29C1086.72,1337.35 1086.55,1337.45 1086.4,1337.57C1086.24,1337.69 1086.11,1337.84 1086,1338.01C1085.89,1338.18 1085.81,1338.38 1085.75,1338.6L1089.28,1338.6Z" style="fill-rule:nonzero;"/>
            </g>
        </g>
        <g id="outline" transform="matrix(0.959372,-1.2326e-32,-1.2326e-32,1.08499,-819.165,-321.912)">
            <rect x="869.491" y="328.033" width="1506.89" height="1332.43" style="fill:none;stroke:black;stroke-width:0.98px;stroke-linecap:round;stroke-linejoin:round;stroke-miterlimit:1.5;"/>
        </g>
        <g id="left" transform="matrix(4.89859e-17,0.8,-0.8,4.89859e-17,1947.4,1127.71)">
            <path d="M-237.402,1052.36L-237.402,992.126L-248.031,992.126L-248.031,942.52L-237.402,942.52L-237.402,892.913L-248.031,892.913L-248.031,843.307L-237.402,843.307L-237.402,793.701L-248.031,793.701L-248.031,744.094L-237.402,744.094L-237.402,694.488L-248.031,694.488L-248.031,644.882L-237.402,644.882L-237.402,634.252L-74.409,634.252L-74.409,644.882L88.583,644.882L88.583,634.252L251.575,634.252L251.575,644.882L425.197,644.882L425.197,694.488L414.567,694.488L414.567,744.094L425.197,744.094L425.197,793.701L414.567,793.701L414.567,843.307L425.197,843.307L425.197,892.913L414.567,892.913L414.567,942.52L425.197,942.52L425.197,992.126L414.567,992.126L414.567,1041.73L251.575,1041.73L251.575,1052.36L88.583,1052.36L88.583,1041.73L-74.409,1041.73L-74.409,1052.36L-237.402,1052.36Z" style="fill:none;stroke:black;stroke-width:1px;"/>
        </g>
        <g id="right" transform="matrix(4.89859e-17,-0.8,0.8,4.89859e-17,-485.923,243.158)">
            <path d="M237.402,992.126L237.402,1052.36L74.409,1052.36L74.409,1041.73L-88.583,1041.73L-88.583,1052.36L-251.575,1052.36L-251.575,1041.73L-414.567,1041.73L-414.567,992.126L-425.197,992.126L-425.197,942.52L-414.567,942.52L-414.567,892.913L-425.197,892.913L-425.197,843.307L-414.567,843.307L-414.567,793.701L-425.197,793.701L-425.197,744.094L-414.567,744.094L-414.567,694.488L-425.197,694.488L-425.197,644.882L-251.575,644.882L-251.575,634.252L-88.583,634.252L-88.583,644.882L74.409,644.882L74.409,634.252L237.402,634.252L237.402,644.882L248.031,644.882L248.031,694.488L237.402,694.488L237.402,744.094L248.031,744.094L248.031,793.701L237.402,793.701L237.402,843.307L248.031,843.307L248.031,892.913L237.402,892.913L237.402,942.52L248.031,942.52L248.031,992.126L237.402,992.126Z" style="fill:none;stroke:black;stroke-width:1px;"/>
        </g>
        <g id="back">
            <g id="bottom1" serif:id="bottom" transform="matrix(1,0,0,1,-1674.27,430.09)">
                <path d="M1782.14,995.472L1733.96,995.472L1733.96,787.834L1742.46,787.834L1742.46,580.196L1733.96,580.196L1733.96,372.558L1742.46,372.558L1742.46,164.921L1782.14,164.921L1782.14,173.425L1821.83,173.425L1821.83,164.921L1861.52,164.921L1861.52,173.425L1892.7,173.425L1892.7,254.725L1901.2,254.725L1901.2,336.079L1892.7,336.079L1892.7,417.433L1901.2,417.433L1901.2,498.788L1892.7,498.788L1892.7,580.142L1901.2,580.142L1901.2,661.496L1892.7,661.496L1892.7,742.851L1901.2,742.851L1901.2,824.205L1892.7,824.205L1892.7,905.559L1901.2,905.559L1901.2,986.968L1861.52,986.968L1861.52,995.472L1821.83,995.472L1821.83,986.968L1782.14,986.968L1782.14,995.472Z" style="fill:none;stroke:black;stroke-width:0.8px;"/>
            </g>
            <g id="top1" serif:id="top" transform="matrix(1,0,0,1,-628.445,-82.3693)">
                <path d="M1901.2,173.37L1901.2,164.921L1940.89,164.921L1940.89,173.425L1980.57,173.425L1980.57,164.921L2020.26,164.921L2020.26,173.425L2059.94,173.425L2059.94,372.558L2068.45,372.558L2068.45,580.196L2059.94,580.196L2059.94,787.834L2068.45,787.834L2068.45,995.472L2059.94,995.472L2059.94,986.968L2020.26,986.968L2020.26,995.472L1980.57,995.472L1980.57,986.968L1940.89,986.968L1940.89,995.472L1901.2,995.472L1901.2,905.559L1892.7,905.559L1892.7,824.205L1901.2,824.205L1901.2,742.851L1892.7,742.851L1892.7,661.496L1901.2,661.496L1901.2,580.142L1892.7,580.142L1892.7,498.788L1901.2,498.788L1901.2,417.433L1892.7,417.433L1892.7,336.079L1901.2,336.079L1901.2,254.725L1892.7,254.725L1892.7,173.37L1901.2,173.37Z" style="fill:none;stroke:black;stroke-width:1px;stroke-linecap:round;stroke-linejoin:round;stroke-miterlimit:1.5;"/>
            </g>
            <g transform="matrix(0.584903,0,0,0.584903,641.035,407.414)">
                <path d="M1331.8,831.698L1331.8,837.667L1330.04,837.667L1330.04,831.698L1329.29,831.698L1329.29,830.057L1330.04,830.057L1330.04,827.268L1331.8,827.268L1331.8,830.057L1333.17,830.057L1333.17,831.698L1331.8,831.698Z" style="fill-rule:nonzero;"/>
                <path d="M1334.11,833.807C1334.11,832.708 1334.51,831.774 1335.29,831.003C1336.08,830.232 1337.04,829.846 1338.17,829.846C1339.3,829.846 1340.27,830.234 1341.06,831.01C1341.84,831.787 1342.23,832.74 1342.23,833.87C1342.23,835.01 1341.84,835.966 1341.05,836.737C1340.26,837.503 1339.29,837.885 1338.14,837.885C1337,837.885 1336.04,837.495 1335.27,836.714C1334.5,835.943 1334.11,834.974 1334.11,833.807ZM1335.91,833.839C1335.91,834.599 1336.11,835.201 1336.52,835.643C1336.94,836.091 1337.49,836.315 1338.17,836.315C1338.86,836.315 1339.41,836.094 1339.82,835.651C1340.23,835.208 1340.43,834.617 1340.43,833.878C1340.43,833.138 1340.23,832.547 1339.82,832.104C1339.4,831.656 1338.85,831.432 1338.17,831.432C1337.5,831.432 1336.95,831.656 1336.54,832.104C1336.12,832.552 1335.91,833.13 1335.91,833.839Z" style="fill-rule:nonzero;"/>
                <path d="M1345.85,841.807L1344.09,841.807L1344.09,830.057L1345.85,830.057L1345.85,830.885C1346.54,830.193 1347.33,829.846 1348.21,829.846C1349.26,829.846 1350.12,830.232 1350.79,831.003C1351.48,831.768 1351.83,832.734 1351.83,833.901C1351.83,835.042 1351.48,835.992 1350.8,836.753C1350.12,837.508 1349.27,837.885 1348.24,837.885C1347.35,837.885 1346.55,837.529 1345.85,836.815L1345.85,841.807ZM1350.03,833.909C1350.03,833.18 1349.83,832.586 1349.43,832.128C1349.03,831.664 1348.53,831.432 1347.92,831.432C1347.27,831.432 1346.75,831.656 1346.35,832.104C1345.95,832.552 1345.75,833.141 1345.75,833.87C1345.75,834.583 1345.95,835.172 1346.35,835.635C1346.74,836.089 1347.27,836.315 1347.91,836.315C1348.52,836.315 1349.02,836.086 1349.42,835.628C1349.83,835.169 1350.03,834.596 1350.03,833.909Z" style="fill-rule:nonzero;"/>
            </g>
        </g>
    </g>
</svg>
