<?xml version="1.0" encoding="UTF-8" standalone="no"?>
<!DOCTYPE svg PUBLIC "-//W3C//DTD SVG 1.1//EN" "http://www.w3.org/Graphics/SVG/1.1/DTD/svg11.dtd">
<svg width="100%" height="100%" viewBox="0 0 2880 2016" version="1.1" xmlns="http://www.w3.org/2000/svg" xmlns:xlink="http://www.w3.org/1999/xlink" xml:space="preserve" xmlns:serif="http://www.serif.com/" style="fill-rule:evenodd;clip-rule:evenodd;stroke-linecap:round;stroke-linejoin:round;stroke-miterlimit:1.5;">
    <g id="nesting" transform="matrix(2.5695,0,0,2.96819,-666.321,-3790.56)">
        <rect x="265.319" y="1525.92" width="323.235" height="181.452" style="fill:none;stroke:black;stroke-width:0.36px;"/>
        <g transform="matrix(1,0,0,1,0,186.481)">
            <rect x="265.319" y="1525.92" width="323.235" height="181.452" style="fill:none;stroke:black;stroke-width:0.36px;"/>
        </g>
        <g transform="matrix(3.97091e-17,-0.561391,0.717781,3.80477e-17,-485.289,1623.66)">
            <rect x="265.319" y="1525.92" width="323.235" height="181.452" style="fill:none;stroke:black;stroke-width:0.57px;"/>
        </g>
        <g transform="matrix(3.97091e-17,-0.561391,0.717781,3.80477e-17,-485.289,1829.46)">
            <rect x="265.319" y="1525.92" width="323.235" height="181.452" style="fill:none;stroke:black;stroke-width:0.57px;"/>
        </g>
        <g transform="matrix(1,0,0,0.621053,4.00782e-08,459.781)">
            <rect x="265.319" y="1525.92" width="323.235" height="181.452" style="fill:none;stroke:black;stroke-width:0.45px;"/>
        </g>
        <g transform="matrix(1,0,0,0.621053,4.00782e-08,342.461)">
            <rect x="265.319" y="1525.92" width="323.235" height="181.452" style="fill:none;stroke:black;stroke-width:0.45px;"/>
        </g>
        <g id="outline" transform="matrix(0.380691,-4.23411e-33,-4.89109e-33,0.372706,446.831,1170.99)">
            <rect x="869.491" y="328.033" width="1506.89" height="1332.43" style="fill:none;stroke:black;stroke-width:0.96px;"/>
        </g>
    </g>
</svg>
