<svg xmlns:sodipodi="http://sodipodi.sourceforge.net/DTD/sodipodi-0.dtd" width="744.094488189" height="1052.36220472"><desc>right.dxf - scale = 1.000000, origin = (0.000000, 0.000000), auto = True</desc><defs><marker id="DistanceX" orient="auto" refX="0.0" refY="0.0" style="overflow:visible"><path d="M 3,-3 L -3,3 M 0,-5 L  0,5" style="stroke:#000000; stroke-width:0.5"/></marker><pattern height="8" id="Hatch" patternUnits="userSpaceOnUse" width="8" x="0" y="0"><path d="M8 4 l-4,4" linecap="square" stroke="#000000" stroke-width="0.25"/><path d="M6 2 l-4,4" linecap="square" stroke="#000000" stroke-width="0.25"/><path d="M4 0 l-4,4" linecap="square" stroke="#000000" stroke-width="0.25"/></pattern><symbol id="*MODEL_SPACE"/><symbol id="*PAPER_SPACE"/></defs><g xmlns:ns0="http://www.inkscape.org/namespaces/inkscape" ns0:groupmode="layer" ns0:label="0"><path d="M -237.401575,1052.362205 L -237.401575,992.125984 L -248.031496,992.125984 L -248.031496,942.519685 L -237.401575,942.519685 L -237.401575,892.913386 L -248.031496,892.913386 L -248.031496,843.307087 L -237.401575,843.307087 L -237.401575,793.700787 L -248.031496,793.700787 L -248.031496,744.094488 L -237.401575,744.094488 L -237.401575,694.488189 L -248.031496,694.488189 L -248.031496,644.881890 L -237.401575,644.881890 L -237.401575,634.251969 L -74.409449,634.251969 L -74.409449,644.881890 L 88.582677,644.881890 L 88.582677,634.251969 L 251.574803,634.251969 L 251.574803,644.881890 L 425.196850,644.881890 L 425.196850,694.488189 L 414.566929,694.488189 L 414.566929,744.094488 L 425.196850,744.094488 L 425.196850,793.700787 L 414.566929,793.700787 L 414.566929,843.307087 L 425.196850,843.307087 L 425.196850,892.913386 L 414.566929,892.913386 L 414.566929,942.519685 L 425.196850,942.519685 L 425.196850,992.125984 L 414.566929,992.125984 L 414.566929,1041.732283 L 251.574803,1041.732283 L 251.574803,1052.362205 L 88.582677,1052.362205 L 88.582677,1041.732283 L -74.409449,1041.732283 L -74.409449,1052.362205 L -237.401575,1052.362205 z" style="stroke:#000000;fill:none"/></g></svg>