<svg xmlns:sodipodi="http://sodipodi.sourceforge.net/DTD/sodipodi-0.dtd" width="744.094488189" height="1052.36220472"><desc>top.dxf - scale = 1.000000, origin = (0.000000, 0.000000), auto = True</desc><defs><marker id="DistanceX" orient="auto" refX="0.0" refY="0.0" style="overflow:visible"><path d="M 3,-3 L -3,3 M 0,-5 L  0,5" style="stroke:#000000; stroke-width:0.5"/></marker><pattern height="8" id="Hatch" patternUnits="userSpaceOnUse" width="8" x="0" y="0"><path d="M8 4 l-4,4" linecap="square" stroke="#000000" stroke-width="0.25"/><path d="M6 2 l-4,4" linecap="square" stroke="#000000" stroke-width="0.25"/><path d="M4 0 l-4,4" linecap="square" stroke="#000000" stroke-width="0.25"/></pattern><symbol id="*MODEL_SPACE"/><symbol id="*PAPER_SPACE"/></defs><g xmlns:ns0="http://www.inkscape.org/namespaces/inkscape" ns0:groupmode="layer" ns0:label="0"><path d="M 248.031496,592.618110 L 237.401575,592.618110 L 237.401575,852.165354 L 248.031496,852.165354 L 248.031496,1111.712598 L 237.401575,1111.712598 L 237.401575,1360.629921 L 74.409449,1360.629921 L 74.409449,1371.259843 L -88.582677,1371.259843 L -88.582677,1360.629921 L -251.574803,1360.629921 L -251.574803,1371.259843 L -414.566929,1371.259843 L -414.566929,1111.712598 L -425.196850,1111.712598 L -425.196850,852.165354 L -414.566929,852.165354 L -414.566929,592.618110 L -425.196850,592.618110 L -425.196850,333.070866 L -251.574803,333.070866 L -251.574803,343.700787 L -88.582677,343.700787 L -88.582677,333.070866 L 74.409449,333.070866 L 74.409449,343.700787 L 237.401575,343.700787 L 237.401575,333.070866 L 248.031496,333.070866 L 248.031496,592.618110 z" style="stroke:#000000;fill:none"/><path d="M 162.401575,462.844488 A 26.574803,26.574803 -0.000000 1 0 109.251969,462.844488 26.574803,26.574803 -0.000000 1 0 162.401575,462.844488 z" style="stroke:#000000;fill:none"/><path d="M 141.318898,1176.599409 A 5.492126,5.492126 -0.000000 1 0 130.334646,1176.599409 5.492126,5.492126 -0.000000 1 0 141.318898,1176.599409 z" style="stroke:#000000;fill:none"/><path d="M 162.401575,592.618110 A 26.574803,26.574803 -0.000000 1 0 109.251969,592.618110 26.574803,26.574803 -0.000000 1 0 162.401575,592.618110 z" style="stroke:#000000;fill:none"/><path d="M 141.318898,1241.486220 A 5.492126,5.492126 -0.000000 1 0 130.334646,1241.486220 5.492126,5.492126 -0.000000 1 0 141.318898,1241.486220 z" style="stroke:#000000;fill:none"/><path d="M 141.318898,1111.712598 A 5.492126,5.492126 -0.000000 1 0 130.334646,1111.712598 5.492126,5.492126 -0.000000 1 0 141.318898,1111.712598 z" style="stroke:#000000;fill:none"/></g></svg>